<svg version="1.1" id="Layer_1" xmlns="http://www.w3.org/2000/svg" xmlns:xlink="http://www.w3.org/1999/xlink" x="0px" y="0px"
	 width="100%" viewBox="0 0 170 170" enable-background="new 0 0 170 170" xml:space="preserve">
<path fill="#FFFEFE" opacity="1.000000" stroke="none" 
	d="
M92.000000,171.000000 
	C61.333336,171.000000 31.166674,171.000000 1.000008,171.000000 
	C1.000005,114.333344 1.000005,57.666687 1.000003,1.000023 
	C57.666653,1.000015 114.333305,1.000015 170.999969,1.000008 
	C170.999969,57.666641 170.999969,114.333282 170.999985,170.999969 
	C144.833328,171.000000 118.666664,171.000000 92.000000,171.000000 
M84.364281,150.988846 
	C83.577194,151.304337 82.790100,151.619843 81.635727,152.155289 
	C81.635727,152.155289 81.213371,152.085327 80.375977,152.015747 
	C78.582336,152.632599 76.788696,153.249435 74.327606,154.180557 
	C72.938225,154.668594 71.548836,155.156631 70.082932,154.760391 
	C70.326805,150.830048 68.032372,150.626709 65.133064,151.213379 
	C66.103073,152.249298 67.061142,153.272476 68.780273,155.108429 
	C66.078384,155.259491 64.737274,155.334488 63.666935,155.394333 
	C64.343307,159.366821 64.963257,163.007935 65.788330,167.853821 
	C67.898956,166.657928 69.464012,165.771149 71.843414,164.799286 
	C73.633400,164.503098 75.450806,164.319351 77.208511,163.890778 
	C83.955040,162.245819 90.682426,160.522308 98.137932,158.913025 
	C98.757706,158.627319 99.377472,158.341614 100.322380,157.814636 
	C100.322380,157.814636 100.719521,157.893402 101.440323,158.020416 
	C103.763008,158.774979 106.054504,159.437088 107.551834,155.718353 
	C107.974854,155.563980 108.397873,155.409592 108.995934,155.925537 
	C109.423134,156.679733 109.850334,157.433929 110.205826,158.061539 
	C111.475632,156.503891 112.510857,155.103333 113.682152,153.827713 
	C115.459114,151.892471 114.883202,150.720871 112.240311,149.320389 
	C111.911972,148.651733 111.583641,147.983063 111.921997,147.018860 
	C111.232346,145.785950 110.542702,144.553024 109.853050,143.320114 
	C108.190765,145.976456 102.552521,140.031708 102.497078,146.722183 
	C102.497078,146.722183 102.262924,146.724869 101.848991,146.430374 
	C101.567940,146.585983 101.286896,146.741608 100.373840,147.206543 
	C98.792923,147.545654 97.212013,147.884766 95.019844,148.198120 
	C94.683891,148.409775 94.347931,148.621445 93.339584,149.091446 
	C91.716339,149.441666 90.093094,149.791885 87.701958,150.058319 
	C86.807846,150.385101 85.913742,150.711899 85.014046,150.995575 
	C85.014046,150.995575 85.038750,151.033310 84.364281,150.988846 
M78.540352,144.959915 
	C79.360962,144.646896 80.181564,144.333878 81.501038,143.605576 
	C82.331131,143.439148 83.161217,143.272705 84.146034,143.805206 
	C87.117004,145.903030 88.961571,145.180283 89.645027,141.694916 
	C89.645027,141.694916 89.713669,141.627716 90.339188,141.832642 
	C90.891487,141.571609 91.443779,141.310577 92.321274,140.822403 
	C92.321274,140.822403 92.712090,140.890335 93.500061,140.975113 
	C98.387917,139.927383 103.300926,138.978882 108.143112,137.751068 
	C109.152847,137.495026 109.900742,136.206406 111.260796,134.963913 
	C112.586990,132.238037 114.615654,129.626373 115.081596,126.760635 
	C115.861870,121.961563 117.303337,117.778908 120.887314,114.406319 
	C123.190277,112.239182 125.394318,109.965820 127.617844,107.715523 
	C144.638199,90.490105 149.453659,65.168228 139.928558,43.024666 
	C130.460632,21.013998 108.525299,6.923454 84.470306,7.400097 
	C61.136654,7.862446 39.167522,23.161430 31.054962,44.597755 
	C22.203856,67.985611 28.073784,93.160797 45.824947,109.727707 
	C49.458721,113.119064 52.055351,117.621704 55.036045,122.461548 
	C55.446793,123.937805 55.857544,125.414055 56.143902,126.899483 
	C56.143902,126.899483 56.188663,126.783066 56.072659,127.580399 
	C56.050308,128.384659 56.027954,129.188934 55.747414,130.600571 
	C55.834446,132.070267 55.921482,133.539963 56.221302,135.441605 
	C56.417862,135.710999 56.675377,135.895172 56.999577,135.999741 
	C56.999577,135.999741 57.004627,136.004898 57.010612,136.727310 
	C57.010612,138.630142 57.010612,140.532959 57.010612,142.435791 
	C56.528606,142.572052 56.046600,142.708313 55.564594,142.844589 
	C56.737480,143.560638 57.910366,144.276688 59.282349,145.157578 
	C59.282349,145.157578 59.222088,145.408951 59.088352,146.115906 
	C59.520699,147.151733 59.953049,148.187546 60.385403,149.223389 
	C61.259769,148.821335 62.134132,148.419281 63.673553,147.917786 
	C64.115898,147.978683 64.558243,148.039566 65.205971,148.408112 
	C65.470566,148.271576 65.735161,148.135056 66.256332,147.767334 
	C66.256332,147.767334 66.590248,147.855576 67.409508,147.955505 
	C69.762016,147.757614 73.250732,151.152817 74.321510,145.474655 
	C74.491707,145.454666 74.661903,145.434677 75.135956,146.086868 
	C76.053322,145.664581 76.970688,145.242294 77.947044,144.944458 
	C77.947044,144.944458 77.839577,144.858322 78.540352,144.959915 
M116.085442,149.452911 
	C116.786140,149.838440 117.486839,150.223953 118.187531,150.609482 
	C118.092735,149.753464 117.997940,148.897461 117.903145,148.041443 
	C117.288345,148.285721 116.673546,148.529999 116.085442,149.452911 
M56.517349,147.410431 
	C56.517349,147.410431 56.585255,147.523621 56.517349,147.410431 
z"/>
<path fill="#FEFDFD" opacity="1.000000" stroke="none" 
	d="
M56.008514,135.009659 
	C55.921482,133.539963 55.834446,132.070267 56.236862,130.456207 
	C60.175453,130.311844 63.624592,130.311844 67.696411,130.311844 
	C66.755020,129.054962 66.386925,128.563507 66.321823,127.888031 
	C68.000587,127.436401 69.376350,127.168785 71.125557,126.966263 
	C74.875214,128.734650 76.976433,126.682983 79.346550,124.312103 
	C80.381851,124.067474 81.095490,123.986679 82.107407,124.037750 
	C83.273109,123.779404 84.140533,123.389183 85.275055,122.798317 
	C85.973488,122.521309 86.404823,122.444939 86.966232,122.686684 
	C87.684235,122.545029 88.272163,122.085266 88.930832,121.422363 
	C89.200172,120.977036 89.455551,120.868645 90.092735,121.032852 
	C91.719009,121.717270 93.020271,122.262894 94.321526,122.808517 
	C94.506821,122.438972 94.692116,122.069427 94.877411,121.699883 
	C93.565430,120.763611 92.253456,119.827339 90.895348,118.431183 
	C90.914078,102.315514 90.978951,86.659729 91.342056,70.961594 
	C91.442001,69.944412 91.243698,68.969597 90.920296,67.698586 
	C90.690529,66.987709 90.585869,66.573013 90.794052,66.013443 
	C91.108345,61.840115 88.664856,62.234364 85.764030,63.132374 
	C85.212799,63.345966 84.889755,63.348293 84.174835,63.170906 
	C80.353981,63.446011 80.212761,63.602516 81.094818,66.443680 
	C80.930962,67.881737 80.804558,68.926247 80.371376,70.065598 
	C80.034882,79.520035 79.932693,88.880219 80.009979,98.238930 
	C80.042297,102.152290 80.455765,106.062508 80.769363,110.314590 
	C80.782845,111.111320 80.722885,111.567612 80.484955,112.152870 
	C80.189262,112.693649 80.071541,113.105461 79.590225,113.698441 
	C74.447571,115.134628 69.668503,116.389641 65.762657,117.415344 
	C59.603458,110.358002 53.834644,103.959007 48.298370,97.364792 
	C31.752483,77.657089 33.675629,47.828625 52.511688,30.552425 
	C71.736420,12.919746 101.589409,13.242079 119.891151,31.279947 
	C138.599869,49.718929 139.704376,79.033409 122.449913,98.534286 
	C117.613663,104.000191 112.845245,109.526108 107.810959,115.171188 
	C107.510727,115.664925 107.445244,116.011971 107.330292,116.270660 
	C107.280830,116.182312 107.441917,116.305023 107.078690,116.360428 
	C105.470932,119.866341 104.226418,123.316849 102.825638,126.925941 
	C102.669373,127.084534 102.224174,127.092583 101.860962,127.059189 
	C100.677040,127.386505 99.856323,127.747208 98.839630,128.316345 
	C98.090378,128.619415 97.537086,128.714050 96.804260,128.612640 
	C96.107536,128.672012 95.590370,128.927429 94.879761,129.398605 
	C94.119659,129.683182 93.553001,129.751999 92.875275,129.678116 
	C92.508415,129.689941 92.252617,129.844482 91.859909,130.115433 
	C91.723015,130.231827 91.376762,130.135574 91.042259,130.098999 
	C90.140663,130.348755 89.573563,130.635101 88.802422,131.070831 
	C88.272453,131.213669 87.946533,131.207108 87.256638,131.151917 
	C86.263390,131.385712 85.634125,131.668121 84.717361,132.148987 
	C82.852196,132.650116 81.274513,132.952805 79.317017,133.190933 
	C78.288742,133.434494 77.640305,133.742599 76.721573,134.272232 
	C75.314362,134.694733 74.177422,134.895737 72.879929,134.848709 
	C71.813126,135.057587 70.906891,135.514511 69.795563,136.103378 
	C69.271935,136.397079 68.958031,136.388519 68.277039,136.158234 
	C67.268929,136.405914 66.632553,136.705002 65.864258,137.119629 
	C65.732330,137.235168 65.394539,137.140778 65.021576,137.074173 
	C62.100624,136.673340 59.552624,136.339127 57.004627,136.004898 
	C57.004627,136.004898 56.999577,135.999741 56.890755,135.780640 
	C56.585194,135.292023 56.327389,135.108063 56.008514,135.009659 
M91.566734,54.825989 
	C91.671577,52.213032 91.776428,49.600071 91.351570,46.594296 
	C88.775055,43.482090 85.785469,42.587559 82.178406,44.850460 
	C77.883659,47.544781 78.818596,51.804459 80.470291,54.895611 
	C81.230156,56.317684 85.510063,55.869114 88.198189,56.236706 
	C88.507446,56.278992 88.844978,56.114567 89.517952,55.952129 
	C89.748482,55.839794 89.900742,55.660858 90.299843,55.040684 
	C90.299843,55.040684 90.775536,54.900124 91.566734,54.825989 
M106.530823,111.665276 
	C105.414040,111.922493 104.297256,112.179710 103.180473,112.436935 
	C103.411972,112.890549 103.643471,113.344170 103.874969,113.797791 
	C104.775810,113.295303 105.676659,112.792809 106.530823,111.665276 
M85.519737,129.918472 
	C85.762604,129.774170 86.005463,129.629868 86.248329,129.485580 
	C85.997910,129.351944 85.684586,129.058258 85.513145,129.125626 
	C85.303734,129.207916 85.213402,129.593201 85.519737,129.918472 
M75.483070,132.585327 
	C75.483070,132.585327 75.419022,132.477127 75.483070,132.585327 
z"/>
<path fill="#F70A0B" opacity="1.000000" stroke="none" 
	d="
M90.481209,66.158325 
	C90.585869,66.573013 90.690529,66.987709 90.825500,68.069519 
	C90.918480,69.492409 90.981148,70.248177 91.043816,71.003952 
	C90.978951,86.659729 90.914078,102.315514 90.662361,118.617638 
	C90.239578,119.807343 90.003647,120.350700 89.767715,120.894058 
	C89.455551,120.868645 89.200172,120.977036 88.663651,121.471825 
	C87.829201,121.939133 87.332680,122.153854 86.836159,122.368576 
	C86.404823,122.444939 85.973488,122.521309 84.930611,122.772781 
	C83.482422,123.267220 82.645775,123.586548 81.809128,123.905884 
	C81.095490,123.986679 80.381851,124.067474 78.988396,124.337517 
	C75.789757,125.318237 73.270943,126.109703 70.752121,126.901169 
	C69.376350,127.168785 68.000587,127.436401 65.937744,127.870010 
	C62.230007,127.618355 59.209335,127.200706 56.188663,126.783066 
	C56.188663,126.783066 56.143902,126.899483 56.168751,126.504196 
	C55.839085,124.609970 55.484570,123.111031 55.130058,121.612091 
	C52.055351,117.621704 49.458721,113.119064 45.824947,109.727707 
	C28.073784,93.160797 22.203856,67.985611 31.054962,44.597755 
	C39.167522,23.161430 61.136654,7.862446 84.470306,7.400097 
	C108.525299,6.923454 130.460632,21.013998 139.928558,43.024666 
	C149.453659,65.168228 144.638199,90.490105 127.617844,107.715523 
	C125.394318,109.965820 123.190277,112.239182 120.887314,114.406319 
	C117.303337,117.778908 115.861870,121.961563 115.081596,126.760635 
	C114.615654,129.626373 112.586990,132.238037 110.629059,135.265793 
	C104.235580,137.341888 98.473831,139.116104 92.712090,140.890335 
	C92.712090,140.890335 92.321274,140.822403 91.850830,140.892151 
	C90.824814,141.183823 90.269241,141.405762 89.713669,141.627716 
	C89.713669,141.627716 89.645027,141.694916 89.288986,141.674179 
	C87.285728,142.137711 85.638519,142.621994 83.991310,143.106262 
	C83.161217,143.272705 82.331131,143.439148 80.911011,143.772369 
	C79.493851,144.245560 78.666718,144.551941 77.839577,144.858322 
	C77.839577,144.858322 77.947044,144.944458 77.601517,144.852188 
	C76.448029,144.978165 75.640060,145.196426 74.832100,145.414688 
	C74.661903,145.434677 74.491707,145.454666 73.768646,145.679535 
	C71.007271,146.541473 68.798759,147.198532 66.590248,147.855591 
	C66.590248,147.855576 66.256332,147.767334 65.871368,147.840973 
	C65.324471,147.976562 65.162529,148.038513 65.000580,148.100464 
	C64.558243,148.039566 64.115898,147.978683 63.078667,147.768250 
	C61.396549,146.882141 60.309319,146.145538 59.222088,145.408951 
	C59.222088,145.408951 59.282349,145.157578 59.214897,144.695129 
	C58.610718,139.561615 62.399590,138.700867 65.394539,137.140778 
	C65.394539,137.140778 65.732330,137.235168 66.224365,137.147476 
	C67.360519,136.776398 68.004639,136.493027 68.648766,136.209656 
	C68.958031,136.388519 69.271935,136.397079 70.121872,136.136292 
	C71.449013,135.723755 72.244751,135.410248 73.040489,135.096741 
	C74.177422,134.895737 75.314362,134.694733 77.087776,134.293533 
	C78.381790,133.814056 79.039314,133.534775 79.696838,133.255493 
	C81.274513,132.952805 82.852196,132.650116 85.072601,132.176559 
	C86.350426,131.737320 86.985519,131.468933 87.620613,131.200531 
	C87.946533,131.207108 88.272453,131.213669 89.128998,131.096924 
	C90.231995,130.694260 90.804375,130.414917 91.376762,130.135574 
	C91.376762,130.135574 91.723015,130.231827 92.122551,130.155426 
	C92.676842,129.992950 92.831596,129.906876 92.986343,129.820831 
	C93.553001,129.751999 94.119659,129.683182 95.211044,129.419586 
	C96.151787,129.086105 96.567795,128.947388 96.983803,128.808670 
	C97.537086,128.714050 98.090378,128.619415 99.188362,128.344864 
	C100.563431,127.807495 101.393806,127.450043 102.224174,127.092583 
	C102.224174,127.092583 102.669373,127.084534 103.157837,126.811745 
	C104.911514,123.127647 106.176712,119.716331 107.441917,116.305023 
	C107.441917,116.305023 107.280830,116.182312 107.548439,116.115776 
	C107.892609,115.707657 107.969162,115.366074 108.045715,115.024490 
	C112.845245,109.526108 117.613663,104.000191 122.449913,98.534286 
	C139.704376,79.033409 138.599869,49.718929 119.891151,31.279947 
	C101.589409,13.242079 71.736420,12.919746 52.511688,30.552425 
	C33.675629,47.828625 31.752483,77.657089 48.298370,97.364792 
	C53.834644,103.959007 59.603458,110.358002 65.762657,117.415344 
	C69.668503,116.389641 74.447571,115.134628 79.843063,113.668900 
	C80.527306,112.980087 80.595116,112.501991 80.662926,112.023895 
	C80.722885,111.567612 80.782845,111.111320 80.861565,109.855774 
	C80.812943,96.027924 80.745552,82.999336 80.678162,69.970749 
	C80.804558,68.926247 80.930962,67.881737 81.369247,66.280800 
	C82.642700,64.892967 83.604271,64.061569 84.565849,63.230171 
	C84.889755,63.348293 85.212799,63.345966 86.034180,63.286926 
	C87.849319,64.286552 89.165268,65.222435 90.481209,66.158325 
z"/>
<path fill="#F70A0C" opacity="1.000000" stroke="none" 
	d="
M81.213371,152.085327 
	C81.213371,152.085327 81.635727,152.155289 82.147842,152.087646 
	C83.452888,151.691101 84.245819,151.362213 85.038750,151.033310 
	C85.038750,151.033310 85.014046,150.995575 85.384705,151.053894 
	C86.660194,150.788849 87.565018,150.465485 88.469849,150.142105 
	C90.093094,149.791885 91.716339,149.441666 93.986885,149.002502 
	C94.966484,148.683640 95.298790,148.453751 95.631096,148.223862 
	C97.212013,147.884766 98.792923,147.545654 100.905670,147.112854 
	C101.754997,147.039856 102.030144,146.941757 102.262924,146.724869 
	C102.262924,146.724869 102.497078,146.722183 102.967178,146.613647 
	C106.043289,146.774887 108.649292,147.044647 111.255302,147.314407 
	C111.583641,147.983063 111.911972,148.651733 112.290466,149.971191 
	C111.167381,152.166412 109.994133,153.710800 108.820892,155.255188 
	C108.397873,155.409592 107.974854,155.563980 106.912888,155.923203 
	C104.422462,156.716492 102.570992,157.304947 100.719521,157.893402 
	C100.719521,157.893402 100.322380,157.814636 99.810463,157.909943 
	C98.671349,158.279526 98.044144,158.553818 97.416946,158.828094 
	C90.682426,160.522308 83.955040,162.245819 77.208511,163.890778 
	C75.450806,164.319351 73.633400,164.503098 71.207306,164.603958 
	C66.441757,161.183151 66.382675,159.925476 70.159454,155.644669 
	C71.548836,155.156631 72.938225,154.668594 75.027580,154.043365 
	C77.556160,153.299210 79.384766,152.692261 81.213371,152.085327 
z"/>
<path fill="#FAF6F4" opacity="1.000000" stroke="none" 
	d="
M70.121193,155.202530 
	C66.382675,159.925476 66.441757,161.183151 70.800133,164.646515 
	C69.464012,165.771149 67.898956,166.657928 65.788330,167.853821 
	C64.963257,163.007935 64.343307,159.366821 63.666935,155.394333 
	C64.737274,155.334488 66.078384,155.259491 68.780273,155.108429 
	C67.061142,153.272476 66.103073,152.249298 65.133064,151.213379 
	C68.032372,150.626709 70.326805,150.830048 70.121193,155.202530 
z"/>
<path fill="#FAF6F4" opacity="1.000000" stroke="none" 
	d="
M93.106079,140.932724 
	C98.473831,139.116104 104.235580,137.341888 110.383316,135.480652 
	C109.900742,136.206406 109.152847,137.495026 108.143112,137.751068 
	C103.300926,138.978882 98.387917,139.927383 93.106079,140.932724 
z"/>
<path fill="#FAF5F3" opacity="1.000000" stroke="none" 
	d="
M65.021576,137.074173 
	C62.399590,138.700867 58.610718,139.561615 59.115349,144.612701 
	C57.910366,144.276688 56.737480,143.560638 55.564594,142.844589 
	C56.046600,142.708313 56.528606,142.572052 57.010612,142.435791 
	C57.010612,140.532959 57.010612,138.630142 57.007622,136.366104 
	C59.552624,136.339127 62.100624,136.673340 65.021576,137.074173 
z"/>
<path fill="#FAF6F4" opacity="1.000000" stroke="none" 
	d="
M111.588654,147.166626 
	C108.649292,147.044647 106.043289,146.774887 103.073135,146.563843 
	C102.552521,140.031708 108.190765,145.976456 109.853058,143.320114 
	C110.542702,144.553024 111.232346,145.785950 111.588654,147.166626 
z"/>
<path fill="#FAF5F3" opacity="1.000000" stroke="none" 
	d="
M56.130661,127.181732 
	C59.209335,127.200706 62.230007,127.618355 65.634750,128.054016 
	C66.386925,128.563507 66.755020,129.054962 67.696411,130.311844 
	C63.624592,130.311844 60.175453,130.311844 56.365959,130.152527 
	C56.027954,129.188934 56.050308,128.384659 56.130661,127.181732 
z"/>
<path fill="#FAF6F4" opacity="1.000000" stroke="none" 
	d="
M108.908409,155.590363 
	C109.994133,153.710800 111.167381,152.166412 112.472946,150.296982 
	C114.883202,150.720871 115.459114,151.892471 113.682152,153.827713 
	C112.510857,155.103333 111.475632,156.503891 110.205826,158.061539 
	C109.850334,157.433929 109.423134,156.679733 108.908409,155.590363 
z"/>
<path fill="#FAF6F4" opacity="1.000000" stroke="none" 
	d="
M84.068672,143.455734 
	C85.638519,142.621994 87.285728,142.137711 89.299171,141.627243 
	C88.961571,145.180283 87.117004,145.903030 84.068672,143.455734 
z"/>
<path fill="#FAF6F4" opacity="1.000000" stroke="none" 
	d="
M66.999878,147.905548 
	C68.798759,147.198532 71.007271,146.541473 73.605949,145.878555 
	C73.250732,151.152817 69.762016,147.757614 66.999878,147.905548 
z"/>
<path fill="#FAF5F3" opacity="1.000000" stroke="none" 
	d="
M59.155220,145.762421 
	C60.309319,146.145538 61.396549,146.882141 62.746140,147.817993 
	C62.134132,148.419281 61.259769,148.821335 60.385399,149.223389 
	C59.953049,148.187546 59.520699,147.151733 59.155220,145.762421 
z"/>
<path fill="#FAF6F4" opacity="1.000000" stroke="none" 
	d="
M101.079926,157.956909 
	C102.570992,157.304947 104.422462,156.716492 106.642273,156.134583 
	C106.054504,159.437088 103.763008,158.774979 101.079926,157.956909 
z"/>
<path fill="#FAF6F4" opacity="1.000000" stroke="none" 
	d="
M116.072098,149.113586 
	C116.673546,148.529999 117.288345,148.285721 117.903145,148.041443 
	C117.997940,148.897461 118.092735,149.753464 118.187531,150.609467 
	C117.486839,150.223953 116.786140,149.838440 116.072098,149.113586 
z"/>
<path fill="#FAF6F4" opacity="1.000000" stroke="none" 
	d="
M80.794678,152.050537 
	C79.384766,152.692261 77.556160,153.299210 75.361305,153.886215 
	C76.788696,153.249435 78.582336,152.632599 80.794678,152.050537 
z"/>
<path fill="#FAF6F4" opacity="1.000000" stroke="none" 
	d="
M74.984024,145.750778 
	C75.640060,145.196426 76.448029,144.978165 77.572021,144.789978 
	C76.970688,145.242294 76.053322,145.664581 74.984024,145.750778 
z"/>
<path fill="#FAF5F3" opacity="1.000000" stroke="none" 
	d="
M55.083054,122.036819 
	C55.484570,123.111031 55.839085,124.609970 56.230949,126.499611 
	C55.857544,125.414055 55.446793,123.937805 55.083054,122.036819 
z"/>
<path fill="#FAF6F4" opacity="1.000000" stroke="none" 
	d="
M88.085907,150.100220 
	C87.565018,150.465485 86.660194,150.788849 85.387497,151.075455 
	C85.913742,150.711899 86.807846,150.385101 88.085907,150.100220 
z"/>
<path fill="#FAF6F4" opacity="1.000000" stroke="none" 
	d="
M84.701515,151.011078 
	C84.245819,151.362213 83.452888,151.691101 82.331482,151.977661 
	C82.790100,151.619843 83.577194,151.304337 84.701515,151.011078 
z"/>
<path fill="#FAF6F4" opacity="1.000000" stroke="none" 
	d="
M78.189964,144.909119 
	C78.666718,144.551941 79.493851,144.245560 80.661583,143.980011 
	C80.181564,144.333878 79.360962,144.646896 78.189964,144.909119 
z"/>
<path fill="#FAF6F4" opacity="1.000000" stroke="none" 
	d="
M97.777435,158.870560 
	C98.044144,158.553818 98.671349,158.279526 99.647896,158.030579 
	C99.377472,158.341614 98.757706,158.627319 97.777435,158.870560 
z"/>
<path fill="#FAF6F4" opacity="1.000000" stroke="none" 
	d="
M90.026428,141.730179 
	C90.269241,141.405762 90.824814,141.183823 91.688232,141.005707 
	C91.443779,141.310577 90.891487,141.571609 90.026428,141.730179 
z"/>
<path fill="#FAF5F3" opacity="1.000000" stroke="none" 
	d="
M56.114906,135.225632 
	C56.327389,135.108063 56.585194,135.292023 56.887894,135.777847 
	C56.675377,135.895172 56.417862,135.710999 56.114906,135.225632 
z"/>
<path fill="#FAF6F4" opacity="1.000000" stroke="none" 
	d="
M102.055954,146.577621 
	C102.030144,146.941757 101.754997,147.039856 101.221680,146.958191 
	C101.286896,146.741608 101.567940,146.585983 102.055954,146.577621 
z"/>
<path fill="#FAF5F3" opacity="1.000000" stroke="none" 
	d="
M56.551300,147.467026 
	C56.585255,147.523621 56.517349,147.410431 56.551300,147.467026 
z"/>
<path fill="#FAF5F3" opacity="1.000000" stroke="none" 
	d="
M65.103271,148.254288 
	C65.162529,148.038513 65.324471,147.976562 65.743088,147.956573 
	C65.735161,148.135056 65.470566,148.271576 65.103271,148.254288 
z"/>
<path fill="#FAF6F4" opacity="1.000000" stroke="none" 
	d="
M95.325470,148.210999 
	C95.298790,148.453751 94.966484,148.683640 94.323074,148.873322 
	C94.347931,148.621445 94.683891,148.409775 95.325470,148.210999 
z"/>
<path fill="#F40F10" opacity="1.000000" stroke="none" 
	d="
M89.169395,56.045990 
	C88.844978,56.114567 88.507446,56.278992 88.198189,56.236706 
	C85.510063,55.869114 81.230156,56.317684 80.470291,54.895611 
	C78.818596,51.804459 77.883659,47.544781 82.178406,44.850460 
	C85.785469,42.587559 88.775055,43.482090 91.644112,47.209557 
	C91.549614,50.183258 91.162575,52.541691 90.775543,54.900124 
	C90.775536,54.900124 90.299843,55.040684 89.945648,55.238880 
	C89.338776,55.562382 89.198090,55.765354 89.169395,56.045990 
z"/>
<path fill="#F9EEE9" opacity="1.000000" stroke="none" 
	d="
M80.371384,70.065598 
	C80.745552,82.999336 80.812943,96.027924 80.788132,109.515335 
	C80.455765,106.062508 80.042297,102.152290 80.009979,98.238930 
	C79.932693,88.880219 80.034882,79.520035 80.371384,70.065598 
z"/>
<path fill="#FAF5F3" opacity="1.000000" stroke="none" 
	d="
M107.078690,116.360428 
	C106.176712,119.716331 104.911514,123.127647 103.314102,126.653152 
	C104.226418,123.316849 105.470932,119.866341 107.078690,116.360428 
z"/>
<path fill="#FAF5F3" opacity="1.000000" stroke="none" 
	d="
M71.125557,126.966270 
	C73.270943,126.109703 75.789757,125.318237 78.666733,124.501343 
	C76.976433,126.682983 74.875214,128.734650 71.125557,126.966270 
z"/>
<path fill="#F9EEE9" opacity="1.000000" stroke="none" 
	d="
M90.794052,66.013443 
	C89.165268,65.222435 87.849319,64.286552 86.263229,63.196114 
	C88.664856,62.234364 91.108345,61.840115 90.794052,66.013443 
z"/>
<path fill="#FAF5F3" opacity="1.000000" stroke="none" 
	d="
M90.092735,121.032852 
	C90.003647,120.350700 90.239578,119.807343 90.708496,119.077530 
	C92.253456,119.827339 93.565430,120.763611 94.877411,121.699883 
	C94.692116,122.069427 94.506821,122.438972 94.321526,122.808517 
	C93.020271,122.262894 91.719009,121.717270 90.092735,121.032852 
z"/>
<path fill="#F9EEE9" opacity="1.000000" stroke="none" 
	d="
M91.171143,54.863056 
	C91.162575,52.541691 91.549614,50.183258 91.908966,47.405968 
	C91.776428,49.600071 91.671577,52.213032 91.171143,54.863056 
z"/>
<path fill="#FAF5F3" opacity="1.000000" stroke="none" 
	d="
M106.554169,111.977798 
	C105.676659,112.792809 104.775810,113.295303 103.874969,113.797791 
	C103.643471,113.344170 103.411972,112.890549 103.180473,112.436935 
	C104.297256,112.179710 105.414040,111.922493 106.554169,111.977798 
z"/>
<path fill="#F9EEE9" opacity="1.000000" stroke="none" 
	d="
M84.174835,63.170902 
	C83.604271,64.061569 82.642700,64.892967 81.406693,65.887253 
	C80.212761,63.602516 80.353981,63.446011 84.174835,63.170902 
z"/>
<path fill="#FAF5F3" opacity="1.000000" stroke="none" 
	d="
M82.107407,124.037750 
	C82.645775,123.586548 83.482422,123.267220 84.663513,122.973434 
	C84.140533,123.389183 83.273109,123.779404 82.107407,124.037750 
z"/>
<path fill="#FAF5F3" opacity="1.000000" stroke="none" 
	d="
M72.879929,134.848709 
	C72.244751,135.410248 71.449013,135.723755 70.326965,136.004364 
	C70.906891,135.514511 71.813126,135.057587 72.879929,134.848709 
z"/>
<path fill="#F9EEE9" opacity="1.000000" stroke="none" 
	d="
M91.342056,70.961594 
	C90.981148,70.248177 90.918480,69.492409 90.950607,68.365707 
	C91.243698,68.969597 91.442001,69.944412 91.342056,70.961594 
z"/>
<path fill="#FAF5F3" opacity="1.000000" stroke="none" 
	d="
M86.966232,122.686684 
	C87.332680,122.153854 87.829201,121.939133 88.592911,121.674957 
	C88.272163,122.085266 87.684235,122.545029 86.966232,122.686684 
z"/>
<path fill="#FAF5F3" opacity="1.000000" stroke="none" 
	d="
M85.295654,129.882965 
	C85.213402,129.593201 85.303734,129.207916 85.513145,129.125626 
	C85.684586,129.058258 85.997910,129.351944 86.248322,129.485580 
	C86.005463,129.629868 85.762604,129.774170 85.295654,129.882965 
z"/>
<path fill="#FAF5F3" opacity="1.000000" stroke="none" 
	d="
M101.860962,127.059189 
	C101.393806,127.450043 100.563431,127.807495 99.384338,128.136429 
	C99.856323,127.747208 100.677040,127.386505 101.860962,127.059189 
z"/>
<path fill="#FAF5F3" opacity="1.000000" stroke="none" 
	d="
M68.277039,136.158234 
	C68.004639,136.493027 67.360519,136.776398 66.356285,137.031937 
	C66.632553,136.705002 67.268929,136.405914 68.277039,136.158234 
z"/>
<path fill="#FAF5F3" opacity="1.000000" stroke="none" 
	d="
M79.317017,133.190933 
	C79.039314,133.534775 78.381790,133.814056 77.358063,134.072021 
	C77.640305,133.742599 78.288742,133.434494 79.317017,133.190933 
z"/>
<path fill="#FAF5F3" opacity="1.000000" stroke="none" 
	d="
M87.256638,131.151917 
	C86.985519,131.468933 86.350426,131.737320 85.360092,131.978119 
	C85.634125,131.668121 86.263390,131.385712 87.256638,131.151917 
z"/>
<path fill="#FAF5F3" opacity="1.000000" stroke="none" 
	d="
M91.042259,130.098999 
	C90.804375,130.414917 90.231995,130.694260 89.333038,130.947540 
	C89.573563,130.635101 90.140663,130.348755 91.042259,130.098999 
z"/>
<path fill="#FAF5F3" opacity="1.000000" stroke="none" 
	d="
M96.804260,128.612640 
	C96.567795,128.947388 96.151787,129.086105 95.404488,129.203827 
	C95.590370,128.927429 96.107536,128.672012 96.804260,128.612640 
z"/>
<path fill="#F9EEE9" opacity="1.000000" stroke="none" 
	d="
M80.484955,112.152870 
	C80.595116,112.501991 80.527306,112.980087 80.206657,113.487724 
	C80.071541,113.105461 80.189262,112.693649 80.484955,112.152870 
z"/>
<path fill="#FAF5F3" opacity="1.000000" stroke="none" 
	d="
M75.451050,132.531219 
	C75.419022,132.477127 75.483070,132.585327 75.451050,132.531219 
z"/>
<path fill="#FAF5F3" opacity="1.000000" stroke="none" 
	d="
M92.875275,129.678101 
	C92.831596,129.906876 92.676842,129.992950 92.259445,130.039032 
	C92.252617,129.844482 92.508415,129.689941 92.875275,129.678101 
z"/>
<path fill="#FAF5F3" opacity="1.000000" stroke="none" 
	d="
M107.810959,115.171188 
	C107.969162,115.366074 107.892609,115.707657 107.597900,116.204124 
	C107.445244,116.011971 107.510727,115.664925 107.810959,115.171188 
z"/>
<path fill="#F9EEE9" opacity="1.000000" stroke="none" 
	d="
M89.343674,55.999062 
	C89.198090,55.765354 89.338776,55.562382 89.783096,55.426201 
	C89.900742,55.660858 89.748482,55.839794 89.343674,55.999062 
z"/>
</svg>