<svg version="1.1" id="Layer_1" xmlns="http://www.w3.org/2000/svg" xmlns:xlink="http://www.w3.org/1999/xlink" x="0px" y="0px"
	 width="100%" viewBox="0 0 1024 1024" enable-background="new 0 0 1024 1024" xml:space="preserve">
<path fill="#04D4AC" opacity="1.000000" stroke="none" 
	d="
M559.000000,1025.000000 
	C528.979126,1025.000000 498.958221,1025.000000 468.604248,1024.583984 
	C467.593475,1023.785645 466.947021,1023.148926 466.233093,1023.061096 
	C460.213531,1022.320984 454.146729,1021.904297 448.160156,1020.968262 
	C431.720642,1018.397949 415.110962,1016.496277 398.933655,1012.752563 
	C360.996216,1003.973328 324.338593,991.268250 289.323639,974.058044 
	C257.196533,958.267273 226.668137,939.885132 198.833862,917.299194 
	C185.090668,906.147522 171.401276,894.853271 158.520020,882.738342 
	C147.234909,872.124695 136.822067,860.530701 126.565605,848.892334 
	C117.586647,838.703613 108.586334,828.377563 100.973000,817.175964 
	C87.539864,797.411499 74.037170,777.541931 62.648323,756.583618 
	C51.416813,735.914795 42.186039,714.083984 33.150124,692.317627 
	C23.856165,669.929688 17.503965,646.501038 12.465533,622.788208 
	C9.897151,610.700317 7.931933,598.472778 6.059771,586.252380 
	C4.720767,577.512146 4.029386,568.673645 2.911674,559.896545 
	C2.822285,559.194580 1.662409,558.628967 1.000002,558.000000 
	C1.000000,527.645752 1.000000,497.291534 1.416032,466.604248 
	C2.203234,465.759583 2.840246,465.279816 2.905899,464.731598 
	C3.977488,455.784180 4.636903,446.773224 6.070323,437.886505 
	C8.348613,423.761780 10.744215,409.634125 13.785010,395.658875 
	C19.735886,368.309174 28.009613,341.580780 39.235359,315.970520 
	C48.428837,294.996643 58.156456,274.112244 69.578789,254.301880 
	C80.358009,235.606903 93.053978,217.912247 106.029480,200.619995 
	C117.438965,185.414734 129.895447,170.904846 142.836792,156.967422 
	C153.509308,145.473465 165.310303,134.974579 177.091202,124.578644 
	C187.253860,115.610703 197.640610,106.761223 208.736145,99.016754 
	C226.608490,86.542206 244.639359,74.131363 263.551361,63.357914 
	C280.758636,53.555580 298.805878,44.887794 317.250031,37.684193 
	C339.442688,29.016556 362.165985,21.372066 385.181885,15.247571 
	C405.748688,9.774770 427.029022,6.987720 447.976837,2.924502 
	C448.746704,2.775169 449.329865,1.663311 450.000000,1.000009 
	C492.354218,1.000000 534.708435,1.000000 577.269104,1.371644 
	C581.914062,2.511453 586.389832,3.110550 590.784851,4.076579 
	C611.579895,8.647301 632.443481,12.950571 653.111389,18.043911 
	C680.742371,24.853180 707.091797,35.401901 732.781616,47.499691 
	C760.988342,60.782753 788.008240,76.272385 812.859375,95.122444 
	C830.840515,108.761475 848.501892,122.947517 865.235779,138.073456 
	C885.444397,156.340118 903.399719,176.843369 920.067017,198.466568 
	C938.185547,221.972687 954.225830,246.776291 967.971558,273.051575 
	C983.147766,302.061279 995.882019,332.108765 1004.952576,363.606750 
	C1008.947632,377.480011 1012.991211,391.395935 1015.831787,405.529846 
	C1018.940613,420.998962 1020.665588,436.745300 1023.096130,452.354828 
	C1023.194519,452.986725 1024.341553,453.455322 1025.000000,454.000000 
	C1025.000000,492.354218 1025.000000,530.708435 1024.617065,569.283447 
	C1023.824036,570.517578 1023.192200,571.498413 1023.037781,572.549377 
	C1021.232117,584.835999 1020.211731,597.288513 1017.577515,609.390991 
	C1013.680481,627.295898 1009.548279,645.246826 1003.877197,662.643860 
	C996.757751,684.483826 988.960144,706.216309 979.679382,727.210083 
	C967.478516,754.809387 952.186829,780.854858 934.791626,805.596985 
	C920.036377,826.584106 903.960449,846.508301 886.310913,865.109680 
	C866.395020,886.099426 844.897156,905.363708 821.747070,922.764038 
	C800.667358,938.608276 778.568542,952.869629 755.288818,965.236511 
	C718.931030,984.550781 680.855042,999.554138 640.876404,1009.495972 
	C626.571533,1013.053284 612.163513,1016.341431 597.647644,1018.859253 
	C585.725891,1020.927185 573.570374,1021.636230 561.533997,1023.077454 
	C560.625671,1023.186279 559.841736,1024.334839 559.000000,1025.000000 
M341.925781,697.349548 
	C340.279358,688.904846 337.596344,680.510376 337.184753,672.005920 
	C336.041199,648.378723 335.716064,624.707886 335.332825,601.049988 
	C335.181915,591.733582 335.441040,582.386780 336.045105,573.088318 
	C336.714935,562.777588 340.494476,559.658691 350.894745,560.231079 
	C358.211365,560.633850 365.503510,561.464661 372.817047,561.944397 
	C380.709229,562.461975 387.422516,565.324158 392.270538,571.690369 
	C396.908447,577.780701 401.437836,583.965820 405.750275,590.289795 
	C429.492004,625.106201 453.079926,659.980835 480.781464,691.929993 
	C511.241211,727.060364 549.505920,742.074341 595.347290,738.890808 
	C600.351135,738.543335 605.616699,737.066589 610.068665,734.771240 
	C617.496948,730.941406 617.185120,722.802917 609.866882,718.785400 
	C607.262146,717.355469 604.457581,716.058533 601.583862,715.386902 
	C581.810425,710.765320 565.519897,700.020264 551.106628,686.306458 
	C512.039856,649.135559 478.798706,607.173279 449.744354,561.827515 
	C448.693481,560.187378 447.888855,558.389587 446.580017,555.934753 
	C451.592407,553.551147 456.071075,551.029724 460.822906,549.229492 
	C481.351715,541.452393 498.801636,529.076172 513.374268,512.940674 
	C534.421936,489.635681 545.340698,462.407898 539.230286,430.792480 
	C531.918213,392.959503 506.645538,369.978088 472.354279,356.104767 
	C454.241608,348.776886 434.650146,347.291016 415.362000,347.241547 
	C362.383026,347.105591 309.401031,347.838928 256.422058,348.403534 
	C248.780380,348.484955 241.099915,349.203156 233.542587,350.331421 
	C231.258774,350.672363 227.994232,353.111816 227.584396,355.088745 
	C227.099411,357.428223 228.778244,360.618530 230.356415,362.847168 
	C231.476105,364.428314 233.872330,365.409576 235.891220,365.995422 
	C243.227722,368.124420 250.551682,370.526581 258.054535,371.797668 
	C268.876434,373.631134 274.657013,379.927765 275.876678,390.325836 
	C277.271912,402.220612 278.742096,414.189270 278.854401,426.138275 
	C279.513763,496.294647 279.852722,566.454407 280.138153,636.613586 
	C280.202545,652.438110 279.790863,668.270508 279.286804,684.089355 
	C278.947174,694.746826 273.398499,702.556580 263.860229,706.773987 
	C257.393341,709.633423 250.233414,710.895386 243.452026,713.084290 
	C239.055283,714.503601 234.561813,715.894165 230.518829,718.058289 
	C226.855179,720.019348 226.473053,723.813049 227.365250,727.742188 
	C228.237854,731.585022 231.107407,732.666077 234.403839,732.907410 
	C240.879700,733.381653 247.372192,733.912048 253.858109,733.915955 
	C282.187805,733.933167 310.519653,733.943420 338.846558,733.605957 
	C355.331726,733.409607 371.816528,732.701172 388.284332,731.879150 
	C392.186798,731.684387 396.999054,731.608826 397.118256,725.416321 
	C397.247345,718.708618 396.221375,717.057800 389.236359,715.642883 
	C380.758423,713.925598 372.181488,712.690735 363.716644,710.916687 
	C355.133850,709.117859 346.809296,706.627258 341.925781,697.349548 
M669.522461,434.076447 
	C682.004944,432.331116 694.811157,431.801941 706.901672,428.583893 
	C731.081482,422.148193 747.750549,406.745392 753.026123,381.743164 
	C756.203796,366.683197 757.645142,351.172699 758.747375,335.784454 
	C759.706543,322.394043 755.443176,318.606537 741.954773,318.028564 
	C740.956238,317.985748 739.955200,317.938477 738.956848,317.960632 
	C723.303284,318.308289 707.643372,318.492554 691.998657,319.080109 
	C680.110840,319.526520 678.775696,321.203735 678.851746,333.183289 
	C678.912231,342.707581 679.853210,343.457733 689.380371,344.147980 
	C697.993774,344.772034 706.647522,345.477478 715.134949,346.983948 
	C721.178101,348.056519 723.292603,351.866425 722.789978,357.964844 
	C722.639893,359.784851 722.241028,361.584442 721.954529,363.393127 
	C718.763123,383.536102 708.317261,397.595062 687.880798,402.410583 
	C681.509521,403.911896 674.602417,404.395111 668.085083,403.789551 
	C647.036499,401.833954 629.701965,388.153503 627.680420,365.363953 
	C625.465698,340.396942 625.104065,315.431091 627.297546,290.499176 
	C629.309937,267.625214 643.089722,252.642929 664.592163,249.196609 
	C682.479736,246.329666 698.957886,250.425354 711.278015,263.765747 
	C720.224121,273.452667 728.970276,274.762482 739.922974,269.191650 
	C740.215820,269.042664 740.564575,269.007904 740.872498,268.883392 
	C749.157410,265.533295 750.537964,261.420776 745.735962,253.826004 
	C739.072205,243.286545 730.137817,235.180389 718.795898,229.985352 
	C691.630371,217.542542 663.686646,216.020294 635.754883,226.416534 
	C612.763000,234.974136 598.211304,251.911972 593.458191,276.202576 
	C591.549988,285.954895 591.001709,296.032837 590.532654,305.995392 
	C589.419067,329.646271 589.122559,353.290161 594.042480,376.665863 
	C599.965515,404.807587 615.893311,423.705933 644.403687,430.538879 
	C652.278442,432.426239 660.484375,432.932068 669.522461,434.076447 
z"/>
<path fill="#000000" opacity="1.000000" stroke="none" 
	d="
M1.000002,558.468628 
	C1.662409,558.628967 2.822285,559.194580 2.911674,559.896545 
	C4.029386,568.673645 4.720767,577.512146 6.059771,586.252380 
	C7.931933,598.472778 9.897151,610.700317 12.465533,622.788208 
	C17.503965,646.501038 23.856165,669.929688 33.150124,692.317627 
	C42.186039,714.083984 51.416813,735.914795 62.648323,756.583618 
	C74.037170,777.541931 87.539864,797.411499 100.973000,817.175964 
	C108.586334,828.377563 117.586647,838.703613 126.565605,848.892334 
	C136.822067,860.530701 147.234909,872.124695 158.520020,882.738342 
	C171.401276,894.853271 185.090668,906.147522 198.833862,917.299194 
	C226.668137,939.885132 257.196533,958.267273 289.323639,974.058044 
	C324.338593,991.268250 360.996216,1003.973328 398.933655,1012.752563 
	C415.110962,1016.496277 431.720642,1018.397949 448.160156,1020.968262 
	C454.146729,1021.904297 460.213531,1022.320984 466.233093,1023.061096 
	C466.947021,1023.148926 467.593475,1023.785645 468.135590,1024.583984 
	C312.406250,1025.000000 156.812500,1025.000000 1.000000,1025.000000 
	C1.000000,869.645813 1.000000,714.291565 1.000002,558.468628 
z"/>
<path fill="#000000" opacity="1.000000" stroke="none" 
	d="
M559.468628,1025.000000 
	C559.841736,1024.334839 560.625671,1023.186279 561.533997,1023.077454 
	C573.570374,1021.636230 585.725891,1020.927185 597.647644,1018.859253 
	C612.163513,1016.341431 626.571533,1013.053284 640.876404,1009.495972 
	C680.855042,999.554138 718.931030,984.550781 755.288818,965.236511 
	C778.568542,952.869629 800.667358,938.608276 821.747070,922.764038 
	C844.897156,905.363708 866.395020,886.099426 886.310913,865.109680 
	C903.960449,846.508301 920.036377,826.584106 934.791626,805.596985 
	C952.186829,780.854858 967.478516,754.809387 979.679382,727.210083 
	C988.960144,706.216309 996.757751,684.483826 1003.877197,662.643860 
	C1009.548279,645.246826 1013.680481,627.295898 1017.577515,609.390991 
	C1020.211731,597.288513 1021.232117,584.835999 1023.037781,572.549377 
	C1023.192200,571.498413 1023.824036,570.517578 1024.617065,569.752075 
	C1025.000000,721.594604 1025.000000,873.189209 1025.000000,1025.000000 
	C869.979187,1025.000000 714.958252,1025.000000 559.468628,1025.000000 
z"/>
<path fill="#000000" opacity="1.000000" stroke="none" 
	d="
M449.531372,1.000009 
	C449.329865,1.663311 448.746704,2.775169 447.976837,2.924502 
	C427.029022,6.987720 405.748688,9.774770 385.181885,15.247571 
	C362.165985,21.372066 339.442688,29.016556 317.250031,37.684193 
	C298.805878,44.887794 280.758636,53.555580 263.551361,63.357914 
	C244.639359,74.131363 226.608490,86.542206 208.736145,99.016754 
	C197.640610,106.761223 187.253860,115.610703 177.091202,124.578644 
	C165.310303,134.974579 153.509308,145.473465 142.836792,156.967422 
	C129.895447,170.904846 117.438965,185.414734 106.029480,200.619995 
	C93.053978,217.912247 80.358009,235.606903 69.578789,254.301880 
	C58.156456,274.112244 48.428837,294.996643 39.235359,315.970520 
	C28.009613,341.580780 19.735886,368.309174 13.785010,395.658875 
	C10.744215,409.634125 8.348613,423.761780 6.070323,437.886505 
	C4.636903,446.773224 3.977488,455.784180 2.905899,464.731598 
	C2.840246,465.279816 2.203234,465.759583 1.416032,466.135620 
	C1.000000,311.074188 1.000000,156.148392 1.000000,1.000000 
	C150.354156,1.000000 299.708405,1.000000 449.531372,1.000009 
z"/>
<path fill="#000000" opacity="1.000000" stroke="none" 
	d="
M1025.000000,453.531311 
	C1024.341553,453.455322 1023.194519,452.986725 1023.096130,452.354828 
	C1020.665588,436.745300 1018.940613,420.998962 1015.831787,405.529846 
	C1012.991211,391.395935 1008.947632,377.480011 1004.952576,363.606750 
	C995.882019,332.108765 983.147766,302.061279 967.971558,273.051575 
	C954.225830,246.776291 938.185547,221.972687 920.067017,198.466568 
	C903.399719,176.843369 885.444397,156.340118 865.235779,138.073456 
	C848.501892,122.947517 830.840515,108.761475 812.859375,95.122444 
	C788.008240,76.272385 760.988342,60.782753 732.781616,47.499691 
	C707.091797,35.401901 680.742371,24.853180 653.111389,18.043911 
	C632.443481,12.950571 611.579895,8.647301 590.784851,4.076579 
	C586.389832,3.110550 581.914062,2.511453 577.737793,1.371644 
	C726.927551,1.000000 875.855042,1.000000 1025.000000,1.000000 
	C1025.000000,151.687485 1025.000000,302.375092 1025.000000,453.531311 
z"/>
<path fill="#FEFFFF" opacity="1.000000" stroke="none" 
	d="
M342.073364,697.695374 
	C346.809296,706.627258 355.133850,709.117859 363.716644,710.916687 
	C372.181488,712.690735 380.758423,713.925598 389.236359,715.642883 
	C396.221375,717.057800 397.247345,718.708618 397.118256,725.416321 
	C396.999054,731.608826 392.186798,731.684387 388.284332,731.879150 
	C371.816528,732.701172 355.331726,733.409607 338.846558,733.605957 
	C310.519653,733.943420 282.187805,733.933167 253.858109,733.915955 
	C247.372192,733.912048 240.879700,733.381653 234.403839,732.907410 
	C231.107407,732.666077 228.237854,731.585022 227.365250,727.742188 
	C226.473053,723.813049 226.855179,720.019348 230.518829,718.058289 
	C234.561813,715.894165 239.055283,714.503601 243.452026,713.084290 
	C250.233414,710.895386 257.393341,709.633423 263.860229,706.773987 
	C273.398499,702.556580 278.947174,694.746826 279.286804,684.089355 
	C279.790863,668.270508 280.202545,652.438110 280.138153,636.613586 
	C279.852722,566.454407 279.513763,496.294647 278.854401,426.138275 
	C278.742096,414.189270 277.271912,402.220612 275.876678,390.325836 
	C274.657013,379.927765 268.876434,373.631134 258.054535,371.797668 
	C250.551682,370.526581 243.227722,368.124420 235.891220,365.995422 
	C233.872330,365.409576 231.476105,364.428314 230.356415,362.847168 
	C228.778244,360.618530 227.099411,357.428223 227.584396,355.088745 
	C227.994232,353.111816 231.258774,350.672363 233.542587,350.331421 
	C241.099915,349.203156 248.780380,348.484955 256.422058,348.403534 
	C309.401031,347.838928 362.383026,347.105591 415.362000,347.241547 
	C434.650146,347.291016 454.241608,348.776886 472.354279,356.104767 
	C506.645538,369.978088 531.918213,392.959503 539.230286,430.792480 
	C545.340698,462.407898 534.421936,489.635681 513.374268,512.940674 
	C498.801636,529.076172 481.351715,541.452393 460.822906,549.229492 
	C456.071075,551.029724 451.592407,553.551147 446.580017,555.934753 
	C447.888855,558.389587 448.693481,560.187378 449.744354,561.827515 
	C478.798706,607.173279 512.039856,649.135559 551.106628,686.306458 
	C565.519897,700.020264 581.810425,710.765320 601.583862,715.386902 
	C604.457581,716.058533 607.262146,717.355469 609.866882,718.785400 
	C617.185120,722.802917 617.496948,730.941406 610.068665,734.771240 
	C605.616699,737.066589 600.351135,738.543335 595.347290,738.890808 
	C549.505920,742.074341 511.241211,727.060364 480.781464,691.929993 
	C453.079926,659.980835 429.492004,625.106201 405.750275,590.289795 
	C401.437836,583.965820 396.908447,577.780701 392.270538,571.690369 
	C387.422516,565.324158 380.709229,562.461975 372.817047,561.944397 
	C365.503510,561.464661 358.211365,560.633850 350.894745,560.231079 
	C340.494476,559.658691 336.714935,562.777588 336.045105,573.088318 
	C335.441040,582.386780 335.181915,591.733582 335.332825,601.049988 
	C335.716064,624.707886 336.041199,648.378723 337.184753,672.005920 
	C337.596344,680.510376 340.279358,688.904846 342.073364,697.695374 
M456.620728,394.864594 
	C442.815308,383.801422 427.185242,377.243195 409.403717,377.127167 
	C391.111237,377.007751 372.801697,377.326477 354.524658,378.069458 
	C347.022522,378.374451 341.847107,383.192139 340.039368,390.548950 
	C338.578461,396.494080 337.227081,402.641418 337.134918,408.718903 
	C336.566895,446.182953 336.317688,483.652313 336.088776,521.120667 
	C336.036163,529.734131 336.730194,530.272400 345.410339,531.080505 
	C367.777435,533.163025 389.941254,530.973450 412.115692,528.173096 
	C430.755005,525.819092 446.263245,517.666748 459.225464,504.323517 
	C489.418488,473.242889 488.466980,422.942535 456.620728,394.864594 
z"/>
<path fill="#FDFFFE" opacity="1.000000" stroke="none" 
	d="
M669.030396,434.074127 
	C660.484375,432.932068 652.278442,432.426239 644.403687,430.538879 
	C615.893311,423.705933 599.965515,404.807587 594.042480,376.665863 
	C589.122559,353.290161 589.419067,329.646271 590.532654,305.995392 
	C591.001709,296.032837 591.549988,285.954895 593.458191,276.202576 
	C598.211304,251.911972 612.763000,234.974136 635.754883,226.416534 
	C663.686646,216.020294 691.630371,217.542542 718.795898,229.985352 
	C730.137817,235.180389 739.072205,243.286545 745.735962,253.826004 
	C750.537964,261.420776 749.157410,265.533295 740.872498,268.883392 
	C740.564575,269.007904 740.215820,269.042664 739.922974,269.191650 
	C728.970276,274.762482 720.224121,273.452667 711.278015,263.765747 
	C698.957886,250.425354 682.479736,246.329666 664.592163,249.196609 
	C643.089722,252.642929 629.309937,267.625214 627.297546,290.499176 
	C625.104065,315.431091 625.465698,340.396942 627.680420,365.363953 
	C629.701965,388.153503 647.036499,401.833954 668.085083,403.789551 
	C674.602417,404.395111 681.509521,403.911896 687.880798,402.410583 
	C708.317261,397.595062 718.763123,383.536102 721.954529,363.393127 
	C722.241028,361.584442 722.639893,359.784851 722.789978,357.964844 
	C723.292603,351.866425 721.178101,348.056519 715.134949,346.983948 
	C706.647522,345.477478 697.993774,344.772034 689.380371,344.147980 
	C679.853210,343.457733 678.912231,342.707581 678.851746,333.183289 
	C678.775696,321.203735 680.110840,319.526520 691.998657,319.080109 
	C707.643372,318.492554 723.303284,318.308289 738.956848,317.960632 
	C739.955200,317.938477 740.956238,317.985748 741.954773,318.028564 
	C755.443176,318.606537 759.706543,322.394043 758.747375,335.784454 
	C757.645142,351.172699 756.203796,366.683197 753.026123,381.743164 
	C747.750549,406.745392 731.081482,422.148193 706.901672,428.583893 
	C694.811157,431.801941 682.004944,432.331116 669.030396,434.074127 
z"/>
<path fill="#05D4AC" opacity="1.000000" stroke="none" 
	d="
M456.902466,395.081787 
	C488.466980,422.942535 489.418488,473.242889 459.225464,504.323517 
	C446.263245,517.666748 430.755005,525.819092 412.115692,528.173096 
	C389.941254,530.973450 367.777435,533.163025 345.410339,531.080505 
	C336.730194,530.272400 336.036163,529.734131 336.088776,521.120667 
	C336.317688,483.652313 336.566895,446.182953 337.134918,408.718903 
	C337.227081,402.641418 338.578461,396.494080 340.039368,390.548950 
	C341.847107,383.192139 347.022522,378.374451 354.524658,378.069458 
	C372.801697,377.326477 391.111237,377.007751 409.403717,377.127167 
	C427.185242,377.243195 442.815308,383.801422 456.902466,395.081787 
z"/>
</svg>