<?xml version="1.0" standalone="no"?>
<!DOCTYPE svg PUBLIC "-//W3C//DTD SVG 20010904//EN"
 "http://www.w3.org/TR/2001/REC-SVG-20010904/DTD/svg10.dtd">
<svg version="1.0" xmlns="http://www.w3.org/2000/svg"
 width="400.000000pt" height="400.000000pt" viewBox="0 0 400.000000 400.000000"
 preserveAspectRatio="xMidYMid meet">

<g transform="translate(0.000000,400.000000) scale(0.100000,-0.100000)"
fill="#000000" stroke="none">
<path d="M2103 2507 c-15 -13 -40 -27 -55 -31 -15 -3 -32 -15 -38 -26 -14 -27
-46 -25 -65 3 -8 13 -32 30 -52 40 -41 17 -128 26 -140 13 -10 -10 -16 -1156
-6 -1156 14 -1 218 -2 231 -1 9 1 12 94 12 432 l0 432 38 38 c20 22 42 39 48
39 6 0 21 11 34 25 21 23 31 25 101 25 76 0 80 -1 134 -42 35 -26 57 -51 60
-67 3 -14 11 -39 18 -56 9 -22 12 -140 14 -425 l1 -395 112 0 112 0 -2 422 -1
422 26 23 c14 12 25 28 25 35 0 7 12 19 28 25 15 7 39 23 54 37 25 22 36 24
109 24 73 -1 84 -4 108 -27 15 -14 32 -26 39 -26 6 0 19 -15 28 -32 9 -18 25
-44 35 -57 18 -22 19 -49 19 -437 0 -228 3 -414 8 -414 61 -5 221 -2 230 4 9
5 12 115 12 419 0 397 -1 414 -20 452 -12 22 -25 62 -30 88 -12 60 -88 151
-140 168 -19 7 -43 20 -53 30 -16 17 -34 19 -165 19 -139 0 -149 -1 -187 -25
-22 -13 -50 -25 -62 -25 -13 0 -30 -11 -39 -25 -13 -19 -25 -25 -54 -25 -26 0
-45 8 -64 25 -15 14 -35 25 -45 25 -9 0 -32 11 -51 25 -33 24 -39 25 -186 25
-145 0 -154 -1 -181 -23z"/>
</g>
</svg>
