<svg version="1.1" id="Layer_1" xmlns="http://www.w3.org/2000/svg" xmlns:xlink="http://www.w3.org/1999/xlink" x="0px" y="0px"
	 width="100%" viewBox="0 0 400 400" enable-background="new 0 0 400 400" xml:space="preserve">
<path fill="#C7CACC" opacity="1.000000" stroke="none" 
	d="
M383.000000,401.000000 
	C382.250000,401.000000 381.500000,401.000000 380.305420,400.623535 
	C377.307373,399.498047 374.754547,398.096283 372.200378,398.093842 
	C258.058228,397.985413 143.916000,397.999969 29.773764,398.000610 
	C28.607378,398.000610 27.256977,397.638855 26.319548,398.104462 
	C25.047470,398.736328 24.091541,400.004669 23.000002,401.000000 
	C22.250000,401.000000 21.500000,401.000000 20.336708,400.645691 
	C18.277246,399.195770 16.631079,398.100189 14.684967,396.855011 
	C11.588902,393.808716 8.792782,390.911987 5.996953,387.616699 
	C5.664840,382.247192 5.044855,377.276459 5.042322,372.305359 
	C4.986892,263.502502 4.940392,154.699524 5.097069,45.896873 
	C5.111887,35.606373 3.458011,25.219820 6.303891,14.833455 
	C9.401629,11.452869 12.196310,8.227495 15.385037,5.000909 
	C18.100182,4.496434 20.426430,3.571570 22.741034,3.599854 
	C25.449724,3.632952 28.147985,4.934954 30.851255,4.936706 
	C144.345627,5.010268 257.840027,4.992454 371.334442,5.022004 
	C376.892822,5.023451 382.451477,2.301583 388.157959,5.304499 
	C390.660583,8.020494 392.833130,10.658998 395.439331,12.759409 
	C396.927948,13.959116 399.123016,14.282206 401.000000,14.999996 
	C401.000000,139.022644 401.000000,263.045288 400.596741,387.538422 
	C398.662476,388.379364 396.742401,388.295654 395.676300,389.208832 
	C392.919342,391.570404 390.539185,394.371826 387.627808,396.999451 
	C385.831360,398.334229 384.415680,399.667114 383.000000,401.000000 
M195.500000,396.000000 
	C201.999680,396.000000 208.499374,396.000000 214.999054,396.000000 
	C267.162537,396.000000 319.326447,396.096741 371.488953,395.872253 
	C377.711151,395.845490 384.006683,395.598633 389.486633,390.643372 
	C395.527466,385.180847 395.873413,378.364838 395.883148,371.614563 
	C396.046631,258.288391 396.013367,144.961899 395.941589,31.635546 
	C395.939209,27.861540 395.477753,23.982605 394.523407,20.337666 
	C392.853058,13.958034 388.463623,9.775275 382.072693,8.278750 
	C378.238892,7.381001 374.191559,7.052407 370.239899,7.050228 
	C257.746796,6.988203 145.253677,6.988204 32.760571,7.050220 
	C28.808895,7.052398 24.758537,7.372459 20.928194,8.279353 
	C14.333565,9.840734 9.928663,14.216115 8.314355,20.808731 
	C7.417398,24.471781 7.053983,28.352230 7.051858,32.135036 
	C6.988366,145.128113 6.987593,258.121216 7.055233,371.114288 
	C7.057495,374.892670 7.458178,378.776855 8.396320,382.425781 
	C10.142696,389.218384 14.729599,393.622803 21.658970,394.846863 
	C26.363628,395.677948 31.220320,395.947144 36.009739,395.953796 
	C88.839745,396.027313 141.669891,396.000000 195.500000,396.000000 
z"/>
<path fill="#C6C9CB" opacity="1.000000" stroke="none" 
	d="
M6.000833,14.988666 
	C3.458011,25.219820 5.111887,35.606373 5.097069,45.896873 
	C4.940392,154.699524 4.986892,263.502502 5.042322,372.305359 
	C5.044855,377.276459 5.664840,382.247192 5.580660,387.615387 
	C3.776051,388.008453 2.388026,388.004211 1.000000,388.000000 
	C1.000000,263.979095 1.000000,139.958206 1.416707,15.464470 
	C3.222553,14.990638 4.611693,14.989652 6.000833,14.988666 
z"/>
<path fill="#C4C7C9" opacity="1.000000" stroke="none" 
	d="
M388.009552,5.001568 
	C382.451477,2.301583 376.892822,5.023451 371.334442,5.022004 
	C257.840027,4.992454 144.345627,5.010268 30.851255,4.936706 
	C28.147985,4.934954 25.449724,3.632952 22.741034,3.599854 
	C20.426430,3.571570 18.100182,4.496434 15.384422,4.600636 
	C14.993174,3.134382 14.996587,2.067191 15.000000,1.000000 
	C139.020889,1.000000 263.041779,1.000000 387.535217,1.400115 
	C388.008331,2.867343 388.008942,3.934456 388.009552,5.001568 
z"/>
<path fill="#C4C7C9" opacity="1.000000" stroke="none" 
	d="
M23.468658,401.000000 
	C24.091541,400.004669 25.047470,398.736328 26.319548,398.104462 
	C27.256977,397.638855 28.607378,398.000610 29.773764,398.000610 
	C143.916000,397.999969 258.058228,397.985413 372.200378,398.093842 
	C374.754547,398.096283 377.307373,399.498047 379.930420,400.623535 
	C261.312439,401.000000 142.624878,401.000000 23.468658,401.000000 
z"/>
<path fill="#FBFCFD" opacity="1.000000" stroke="none" 
	d="
M1.000000,13.000000 
	C1.000000,9.078017 1.000000,5.156034 1.000000,1.000000 
	C4.678595,1.000000 8.360122,1.000000 12.502658,1.381839 
	C12.145267,6.297490 5.463570,12.572966 1.000000,13.000000 
z"/>
<path fill="#FBFCFD" opacity="1.000000" stroke="none" 
	d="
M401.000000,390.000000 
	C401.000000,393.587219 401.000000,397.174408 401.000000,401.000000 
	C397.657440,401.000000 394.311676,401.000000 390.505981,400.632996 
	C392.889709,395.982147 395.536682,391.488525 401.000000,390.000000 
z"/>
<path fill="#FBFCFD" opacity="1.000000" stroke="none" 
	d="
M12.000000,401.000000 
	C8.417955,401.000000 4.835911,401.000000 1.000000,401.000000 
	C1.000000,397.993652 1.000000,394.983368 1.384608,391.481995 
	C5.871604,391.688324 11.164122,396.866150 12.000000,401.000000 
z"/>
<path fill="#FBFCFD" opacity="1.000000" stroke="none" 
	d="
M391.000000,1.000000 
	C394.257568,1.000000 397.515167,1.000000 401.000000,1.000000 
	C401.000000,4.342758 401.000000,7.688423 400.628784,11.516900 
	C395.912781,9.392680 391.378571,6.945082 391.000000,1.000000 
z"/>
<path fill="#D7D9DC" opacity="1.000000" stroke="none" 
	d="
M12.375000,401.000000 
	C11.164122,396.866150 5.871604,391.688324 1.384608,390.995422 
	C1.000000,390.250000 1.000000,389.500000 1.000000,388.375000 
	C2.388026,388.004211 3.776051,388.008453 5.580369,388.013977 
	C8.792782,390.911987 11.588902,393.808716 14.686412,397.254456 
	C14.991867,398.868958 14.995934,399.934479 15.000000,401.000000 
	C14.250000,401.000000 13.500000,401.000000 12.375000,401.000000 
z"/>
<path fill="#D7D9DC" opacity="1.000000" stroke="none" 
	d="
M390.625000,1.000000 
	C391.378571,6.945082 395.912781,9.392680 400.628784,11.999856 
	C401.000000,12.750000 401.000000,13.500000 401.000000,14.624996 
	C399.123016,14.282206 396.927948,13.959116 395.439331,12.759409 
	C392.833130,10.658998 390.660583,8.020494 388.157959,5.304499 
	C388.008942,3.934456 388.008331,2.867343 388.003876,1.400115 
	C388.750000,1.000000 389.500000,1.000000 390.625000,1.000000 
z"/>
<path fill="#D7D9DC" opacity="1.000000" stroke="none" 
	d="
M1.000000,13.333333 
	C5.463570,12.572966 12.145267,6.297490 12.981833,1.381839 
	C13.444445,1.000000 13.888889,1.000000 14.666667,1.000000 
	C14.996587,2.067191 14.993174,3.134382 14.990376,4.601847 
	C12.196310,8.227495 9.401629,11.452869 6.303891,14.833455 
	C4.611693,14.989652 3.222553,14.990638 1.416707,14.995812 
	C1.000000,14.555555 1.000000,14.111111 1.000000,13.333333 
z"/>
<path fill="#D7D9DC" opacity="1.000000" stroke="none" 
	d="
M401.000000,389.666687 
	C395.536682,391.488525 392.889709,395.982147 390.023041,400.632996 
	C389.555542,401.000000 389.111115,401.000000 388.337250,400.599823 
	C388.008087,399.132294 388.008331,398.064911 388.008545,396.997559 
	C390.539185,394.371826 392.919342,391.570404 395.676300,389.208832 
	C396.742401,388.295654 398.662476,388.379364 400.596741,388.004456 
	C401.000000,388.444458 401.000000,388.888885 401.000000,389.666687 
z"/>
<path fill="#C4C7C9" opacity="1.000000" stroke="none" 
	d="
M387.627808,396.999451 
	C388.008331,398.064911 388.008087,399.132294 388.003906,400.599823 
	C386.611115,401.000000 385.222198,401.000000 383.416656,401.000000 
	C384.415680,399.667114 385.831360,398.334229 387.627808,396.999451 
z"/>
<path fill="#C4C7C9" opacity="1.000000" stroke="none" 
	d="
M15.416666,401.000000 
	C14.995934,399.934479 14.991867,398.868958 14.986355,397.403992 
	C16.631079,398.100189 18.277246,399.195770 19.961708,400.645691 
	C18.611111,401.000000 17.222221,401.000000 15.416666,401.000000 
z"/>
<path fill="#CED0D3" opacity="1.000000" stroke="none" 
	d="
M195.000000,396.000000 
	C141.669891,396.000000 88.839745,396.027313 36.009739,395.953796 
	C31.220320,395.947144 26.363628,395.677948 21.658970,394.846863 
	C14.729599,393.622803 10.142696,389.218384 8.396320,382.425781 
	C7.458178,378.776855 7.057495,374.892670 7.055233,371.114288 
	C6.987593,258.121216 6.988366,145.128113 7.051858,32.135036 
	C7.053983,28.352230 7.417398,24.471781 8.314355,20.808731 
	C9.928663,14.216115 14.333565,9.840734 20.928194,8.279353 
	C24.758537,7.372459 28.808895,7.052398 32.760571,7.050220 
	C145.253677,6.988204 257.746796,6.988203 370.239899,7.050228 
	C374.191559,7.052407 378.238892,7.381001 382.072693,8.278750 
	C388.463623,9.775275 392.853058,13.958034 394.523407,20.337666 
	C395.477753,23.982605 395.939209,27.861540 395.941589,31.635546 
	C396.013367,144.961899 396.046631,258.288391 395.883148,371.614563 
	C395.873413,378.364838 395.527466,385.180847 389.486633,390.643372 
	C384.006683,395.598633 377.711151,395.845490 371.488953,395.872253 
	C319.326447,396.096741 267.162537,396.000000 214.999054,396.000000 
	C208.499374,396.000000 201.999680,396.000000 195.000000,396.000000 
M284.500000,9.999135 
	C200.502014,9.999012 116.504036,9.993811 32.506058,10.003799 
	C18.627504,10.005450 10.007942,18.512070 10.006343,32.252033 
	C9.993206,145.082672 9.993237,257.913300 10.006293,370.743927 
	C10.007883,384.485809 18.626638,392.995117 32.502014,392.996185 
	C145.165985,393.004883 257.829956,393.005035 370.493927,392.996185 
	C384.577972,392.995087 392.996979,384.475067 392.997742,370.247986 
	C393.003967,257.750671 393.004028,145.253372 392.997711,32.756065 
	C392.996918,18.337496 384.564026,10.005166 369.997986,10.000986 
	C341.832001,9.992904 313.665985,9.998944 284.500000,9.999135 
z"/>
<path fill="#D7D9DC" opacity="1.000000" stroke="none" 
	d="
M285.000000,9.999132 
	C313.665985,9.998944 341.832001,9.992904 369.997986,10.000986 
	C384.564026,10.005166 392.996918,18.337496 392.997711,32.756065 
	C393.004028,145.253372 393.003967,257.750671 392.997742,370.247986 
	C392.996979,384.475067 384.577972,392.995087 370.493927,392.996185 
	C257.829956,393.005035 145.165985,393.004883 32.502014,392.996185 
	C18.626638,392.995117 10.007883,384.485809 10.006293,370.743927 
	C9.993237,257.913300 9.993206,145.082672 10.006343,32.252033 
	C10.007942,18.512070 18.627504,10.005450 32.506058,10.003799 
	C116.504036,9.993811 200.502014,9.999012 285.000000,9.999132 
M389.491211,32.663158 
	C389.661194,32.108772 389.831207,31.554384 390.519806,30.568748 
	C389.683136,29.711544 388.846466,28.854342 388.001404,27.330967 
	C388.001343,26.887135 388.001282,26.443300 388.507690,25.599302 
	C388.005951,24.732466 387.504211,23.865629 386.931885,22.309992 
	C384.621643,20.205765 382.311432,18.101536 379.909485,15.350427 
	C378.939667,15.233145 377.969818,15.115863 376.333801,14.999517 
	C375.890015,14.996385 375.446228,14.993253 374.989502,14.285629 
	C373.993011,13.856693 372.996490,13.427757 371.405487,13.041770 
	C370.936584,13.359782 370.467682,13.677794 369.332123,13.999096 
	C368.888000,13.999512 368.443848,13.999928 367.169312,13.892550 
	C365.050476,13.596285 362.918518,12.970641 360.814850,13.054558 
	C339.107758,13.920470 317.430481,12.669084 295.632477,14.474616 
	C275.013336,16.182505 253.997894,13.961968 233.206985,13.521386 
	C167.164383,12.121876 101.073448,13.002747 34.334900,13.000246 
	C33.890221,13.000825 33.445541,13.001404 32.333900,13.000109 
	C31.889267,12.999678 31.444633,12.999248 30.568769,12.480232 
	C29.711561,13.316862 28.854355,14.153492 27.331783,14.994734 
	C26.888218,14.997125 26.444653,14.999516 25.222912,15.000839 
	C19.982536,15.138763 16.792627,18.378014 15.337829,22.813036 
	C13.965385,26.996992 13.097890,31.554462 13.093176,35.948792 
	C12.974863,146.240662 12.987207,256.532715 13.057793,366.824677 
	C13.060102,370.430786 13.630433,374.100983 14.434911,377.627502 
	C15.736867,383.334808 22.266108,388.591583 28.090748,389.650360 
	C29.060499,389.767303 30.030251,389.884247 31.666943,390.000366 
	C32.111580,389.999420 32.556221,389.998505 33.642212,389.945618 
	C34.430328,389.300262 35.218441,388.654907 36.943039,388.008057 
	C124.959435,388.009430 212.975830,388.010834 301.129700,388.725037 
	C302.420624,389.150421 303.711517,389.575836 305.669434,390.000946 
	C306.114166,389.999817 306.558929,389.998688 307.940521,389.996399 
	C326.626495,389.994751 345.312439,389.993103 364.593750,389.954956 
	C365.062164,389.636505 365.530579,389.318054 366.666016,389.000000 
	C367.110687,388.999176 367.555328,388.998383 368.335358,389.486877 
	C368.889832,389.657104 369.444305,389.827332 370.665863,389.999634 
	C371.110565,390.000183 371.555298,390.000702 372.400818,390.507416 
	C373.267212,390.005219 374.133606,389.503021 375.666992,389.000214 
	C376.111328,389.000153 376.555664,389.000092 377.706757,388.989624 
	C378.471588,388.327240 379.236389,387.664825 380.620728,386.730377 
	C382.748383,384.487335 384.876038,382.244293 387.650330,379.909332 
	C387.767273,378.939545 387.884247,377.969788 388.000458,376.333801 
	C388.003571,375.890015 388.006653,375.446228 388.714233,374.989502 
	C389.143219,373.992981 389.572205,372.996490 390.000366,371.332947 
	C389.999420,370.888214 389.998505,370.443512 389.999664,369.331818 
	C389.998962,368.887421 389.998230,368.443024 389.996033,367.063599 
	C389.995575,361.710205 389.995117,356.356842 389.998871,350.334534 
	C389.997498,349.888580 389.996124,349.442596 389.995148,348.197510 
	C389.994019,347.131958 389.992889,346.066437 389.997681,344.167297 
	C389.995728,342.777954 389.993774,341.388611 389.992859,339.334290 
	C389.992004,338.890991 389.991119,338.447662 389.997406,337.202637 
	C389.995026,336.133636 389.992645,335.064667 389.993561,333.058899 
	C389.335083,311.705505 388.676605,290.352081 388.663422,268.641205 
	C389.108124,266.759583 389.552856,264.877960 389.996399,262.064606 
	C389.996826,257.377472 389.997223,252.690323 389.999298,247.500015 
	C389.998779,247.332306 389.998230,247.164581 389.996429,246.059937 
	C389.996399,226.347748 389.996368,206.635559 389.996338,186.923370 
	C389.996338,174.279587 390.228851,161.629944 389.909698,148.994217 
	C389.715881,141.320709 388.669647,133.668716 388.441498,125.785278 
	C388.712982,125.584145 388.899139,125.322350 388.997864,124.153000 
	C388.670868,120.434044 388.343842,116.715088 388.578857,112.461143 
	C388.721802,107.641602 388.864716,102.822052 388.896729,97.173370 
	C388.601776,91.783966 388.306824,86.394554 388.445007,80.783699 
	C388.714691,80.583176 388.902191,80.323341 389.555908,79.495880 
	C389.043060,76.998245 388.530182,74.500610 388.011047,71.077316 
	C388.267975,67.117126 388.667267,63.159985 388.752014,59.196114 
	C388.924438,51.132732 388.927094,43.065720 389.000549,34.333374 
	C389.001740,33.889172 389.002930,33.444973 389.491211,32.663158 
z"/>
<path fill="#E2E5E7" opacity="1.000000" stroke="none" 
	d="
M35.001190,13.002251 
	C101.073448,13.002747 167.164383,12.121876 233.206985,13.521386 
	C253.997894,13.961968 275.013336,16.182505 295.632477,14.474616 
	C317.430481,12.669084 339.107758,13.920470 360.814850,13.054558 
	C362.918518,12.970641 365.050476,13.596285 367.584534,14.280548 
	C367.999542,15.113736 367.999390,15.558926 367.703217,16.298452 
	C365.930450,16.728760 364.453705,16.983515 362.976898,16.983770 
	C255.380447,17.002335 147.783981,17.005367 40.187550,16.959272 
	C38.458458,16.958530 36.729637,16.336325 35.000381,15.628701 
	C35.000443,14.502930 35.000816,13.752590 35.001190,13.002251 
z"/>
<path fill="#E2E5E7" opacity="1.000000" stroke="none" 
	d="
M389.990234,338.004364 
	C389.991119,338.447662 389.992004,338.890991 389.726013,339.898651 
	C389.636719,341.975647 389.814240,343.488251 389.991760,345.000885 
	C389.992889,346.066437 389.994019,347.131958 389.771057,348.744324 
	C389.696198,349.861877 389.845459,350.432678 389.994690,351.003448 
	C389.995117,356.356842 389.995575,361.710205 389.621857,367.531372 
	C388.497101,367.999176 387.746552,367.999207 386.701599,367.703217 
	C386.271088,365.930450 386.016052,364.453735 386.015808,362.976929 
	C385.997223,255.380432 385.994171,147.783951 386.040314,40.187473 
	C386.041046,38.458408 386.663574,36.729610 387.330078,35.000397 
	C388.109375,35.000141 388.554565,35.000172 388.999725,35.000206 
	C388.927094,43.065720 388.924438,51.132732 388.752014,59.196114 
	C388.667267,63.159985 388.267975,67.117126 388.009003,71.956291 
	C388.007050,74.223419 388.007111,75.611565 388.004883,77.400169 
	C388.005676,78.868797 388.008789,79.936974 388.011902,81.005150 
	C388.306824,86.394554 388.601776,91.783966 388.656372,97.880539 
	C388.282959,103.390518 388.149902,108.193321 388.016846,112.996132 
	C388.343842,116.715088 388.670868,120.434044 388.780121,124.685806 
	C388.289398,125.419617 388.104034,125.682426 388.006348,126.007057 
	C388.669647,133.668716 389.715881,141.320709 389.909698,148.994217 
	C390.228851,161.629944 389.996338,174.279587 389.996338,186.923370 
	C389.996368,206.635559 389.996399,226.347748 389.831329,246.618454 
	C389.776703,247.452377 389.887177,247.727768 389.997650,248.003174 
	C389.997223,252.690323 389.996826,257.377472 389.622681,262.609863 
	C388.838654,265.102966 388.428406,267.050812 388.018127,268.998688 
	C388.676605,290.352081 389.335083,311.705505 389.647217,333.590515 
	C387.332886,335.806488 387.248322,337.156403 389.990234,338.004364 
z"/>
<path fill="#DEE1E3" opacity="1.000000" stroke="none" 
	d="
M28.000324,389.003662 
	C22.266108,388.591583 15.736867,383.334808 14.434911,377.627502 
	C13.630433,374.100983 13.060102,370.430786 13.057793,366.824677 
	C12.987207,256.532715 12.974863,146.240662 13.093176,35.948792 
	C13.097890,31.554462 13.965385,26.996992 15.337829,22.813036 
	C16.792627,18.378014 19.982536,15.138763 25.574451,15.346678 
	C24.916008,16.694651 23.930952,17.723473 22.891600,18.694162 
	C19.013330,22.316221 15.054642,25.886784 16.003105,32.377907 
	C16.003036,33.501469 16.003431,34.250572 15.707937,35.294846 
	C15.274831,37.066471 15.017740,38.542900 15.017483,40.019371 
	C14.998748,147.618530 14.995709,255.217682 15.042111,362.816803 
	C15.042857,364.544678 15.669332,366.272278 16.003475,368.374542 
	C16.003284,369.498169 16.003422,370.247253 16.002075,371.411377 
	C15.688663,380.416473 22.557533,383.679047 28.000048,388.250916 
	C28.000273,388.669098 28.000299,388.836395 28.000324,389.003662 
z"/>
<path fill="#E2E5E7" opacity="1.000000" stroke="none" 
	d="
M300.992218,388.012207 
	C212.975830,388.010834 124.959435,388.009430 36.255352,387.896667 
	C35.293110,387.583649 35.104134,387.320557 35.296726,386.701630 
	C37.069477,386.271149 38.546219,386.016052 40.022999,386.015778 
	C147.619492,385.997192 255.215973,385.994202 362.812439,386.040283 
	C364.541504,386.041016 366.270325,386.663544 367.999451,387.329529 
	C367.999756,388.107971 367.999878,388.552765 368.000000,388.997559 
	C367.555328,388.998383 367.110687,388.999176 366.035461,389.020264 
	C364.936096,389.357544 364.467255,389.674500 363.998413,389.991455 
	C345.312439,389.993103 326.626495,389.994751 307.416962,389.653961 
	C305.930847,388.876892 304.968323,388.442261 303.629150,388.005585 
	C302.499084,388.006439 301.745636,388.009338 300.992218,388.012207 
z"/>
<path fill="#E2E5E7" opacity="1.000000" stroke="none" 
	d="
M388.009766,375.002441 
	C388.006653,375.446228 388.003571,375.890015 387.781555,376.775024 
	C387.289581,377.415619 387.100830,377.676025 386.661072,378.047577 
	C383.550110,381.064636 380.774445,384.031708 377.889771,387.217224 
	C377.581329,387.708069 377.320862,387.895996 376.666077,387.999451 
	C375.888458,387.999634 375.444214,387.999817 374.625275,388.000183 
	C373.501129,388.001434 372.751740,388.002533 371.751740,388.002167 
	C371.334106,388.000336 371.167053,387.999969 371.000000,387.748169 
	C370.999878,387.329132 370.999756,387.161530 371.069519,386.633118 
	C371.455383,385.911682 371.720459,385.303986 372.094818,385.226898 
	C379.250824,383.753448 383.691589,379.598663 385.204376,372.353088 
	C385.319550,371.801422 386.375336,371.446136 387.245331,370.999786 
	C387.664398,371.000000 387.832001,371.000000 388.000183,371.250610 
	C388.001709,371.668274 388.002686,371.835327 388.002838,372.377380 
	C388.004608,373.502411 388.007172,374.252411 388.009766,375.002441 
z"/>
<path fill="#E2E5E7" opacity="1.000000" stroke="none" 
	d="
M388.001221,25.999468 
	C388.001282,26.443300 388.001343,26.887135 388.002228,28.039234 
	C388.003265,29.497725 388.003479,30.247948 388.002197,31.248503 
	C388.000458,31.665712 388.000214,31.832590 387.748474,31.999725 
	C387.329254,32.000153 387.161591,32.000317 386.633087,31.930492 
	C385.911621,31.544590 385.303925,31.279524 385.226868,30.905226 
	C383.753632,23.749243 379.598724,19.308725 372.353516,17.795664 
	C371.801727,17.680441 371.446289,16.624954 370.999817,15.755024 
	C371.000000,15.335855 371.000000,15.168187 371.250580,14.999989 
	C371.668213,14.998405 371.835266,14.997353 372.377319,14.997095 
	C373.502350,14.995301 374.252380,14.992711 375.002441,14.990121 
	C375.446228,14.993253 375.890015,14.996385 376.775024,15.218370 
	C377.415619,15.710341 377.676025,15.899200 378.047546,16.339073 
	C381.063843,19.450537 384.030090,22.226725 387.106384,25.221083 
	C387.416748,25.711857 387.678345,25.898596 388.001221,25.999468 
z"/>
<path fill="#E2E5E7" opacity="1.000000" stroke="none" 
	d="
M16.003567,32.003448 
	C15.054642,25.886784 19.013330,22.316221 22.891600,18.694162 
	C23.930952,17.723473 24.916008,16.694651 25.963539,15.347212 
	C26.444653,14.999516 26.888218,14.997125 28.039642,14.995850 
	C29.497725,14.996744 30.247948,14.996522 31.248507,14.997905 
	C31.665722,14.999864 31.832602,15.000216 31.999735,15.252058 
	C32.000145,15.671205 32.000305,15.838863 31.930460,16.367226 
	C31.544411,17.088551 31.279240,17.696096 30.904787,17.773249 
	C23.748367,19.247786 19.306215,23.402122 17.794695,30.649620 
	C17.679613,31.201412 16.622692,31.556776 16.003567,32.003448 
z"/>
<path fill="#DEE1E3" opacity="1.000000" stroke="none" 
	d="
M386.996338,25.002918 
	C384.030090,22.226725 381.063843,19.450537 378.381531,16.337559 
	C379.110748,15.999615 379.555969,15.998458 380.001221,15.997305 
	C382.311432,18.101536 384.621643,20.205765 386.966095,22.988411 
	C386.998993,24.112192 386.997650,24.557556 386.996338,25.002918 
z"/>
<path fill="#DEE1E3" opacity="1.000000" stroke="none" 
	d="
M377.998779,386.998779 
	C380.774445,384.031708 383.550110,381.064636 386.662506,378.381531 
	C387.000702,379.110748 387.002167,379.555969 387.003662,380.001221 
	C384.876038,382.244293 382.748383,384.487335 379.977234,386.865601 
	C378.888763,387.000122 378.443756,386.999451 377.998779,386.998779 
z"/>
<path fill="#D9DBDE" opacity="1.000000" stroke="none" 
	d="
M388.297852,112.728638 
	C388.149902,108.193321 388.282959,103.390518 388.711823,98.295105 
	C388.864716,102.822052 388.721802,107.641602 388.297852,112.728638 
z"/>
<path fill="#D9DBDE" opacity="1.000000" stroke="none" 
	d="
M388.340759,268.819946 
	C388.428406,267.050812 388.838654,265.102966 389.623230,263.075714 
	C389.552856,264.877960 389.108124,266.759583 388.340759,268.819946 
z"/>
<path fill="#D9DBDE" opacity="1.000000" stroke="none" 
	d="
M388.007172,76.999710 
	C388.007111,75.611565 388.007050,74.223419 388.012146,72.419121 
	C388.530182,74.500610 389.043060,76.998245 389.277527,79.411972 
	C388.668488,78.551949 388.337830,77.775833 388.007172,76.999710 
z"/>
<path fill="#D9DBDE" opacity="1.000000" stroke="none" 
	d="
M388.362000,374.995972 
	C388.007172,374.252411 388.004608,373.502411 388.335693,372.376801 
	C389.113312,372.000793 389.557281,372.000397 390.001221,372.000000 
	C389.572205,372.996490 389.143219,373.992981 388.362000,374.995972 
z"/>
<path fill="#D9DBDE" opacity="1.000000" stroke="none" 
	d="
M388.003662,30.998169 
	C388.003479,30.247948 388.003265,29.497725 388.006409,28.372320 
	C388.846466,28.854342 389.683136,29.711544 389.927551,30.784187 
	C388.891388,30.999140 388.447540,30.998653 388.003662,30.998169 
z"/>
<path fill="#D9DBDE" opacity="1.000000" stroke="none" 
	d="
M28.045536,389.327026 
	C28.000299,388.836395 28.000273,388.669098 28.374865,388.251038 
	C29.499044,388.001373 30.248606,388.002533 30.998432,388.336578 
	C30.999132,389.113403 30.999565,389.557312 31.000000,390.001221 
	C30.030251,389.884247 29.060499,389.767303 28.045536,389.327026 
z"/>
<path fill="#D9DBDE" opacity="1.000000" stroke="none" 
	d="
M30.998169,14.996300 
	C30.247948,14.996522 29.497725,14.996744 28.372326,14.993544 
	C28.854355,14.153492 29.711561,13.316862 30.784197,13.072480 
	C30.999140,14.108585 30.998653,14.552443 30.998169,14.996300 
z"/>
<path fill="#D9DBDE" opacity="1.000000" stroke="none" 
	d="
M372.002319,388.003662 
	C372.751740,388.002533 373.501129,388.001434 374.625275,388.250366 
	C375.000000,388.667236 375.000000,388.834045 375.000000,389.000824 
	C374.133606,389.503021 373.267212,390.005219 372.200623,389.921326 
	C372.001038,388.891388 372.001678,388.447540 372.002319,388.003662 
z"/>
<path fill="#D9DBDE" opacity="1.000000" stroke="none" 
	d="
M374.995972,14.637875 
	C374.252380,14.992711 373.502350,14.995301 372.376770,14.664242 
	C372.000824,13.886666 372.000427,13.442742 372.000000,12.998819 
	C372.996490,13.427757 373.993011,13.856693 374.995972,14.637875 
z"/>
<path fill="#DEE1E3" opacity="1.000000" stroke="none" 
	d="
M35.000732,386.995972 
	C35.104134,387.320557 35.293110,387.583649 35.787109,387.897400 
	C35.218441,388.654907 34.430328,389.300262 33.299957,389.674438 
	C32.638287,388.935547 32.318871,388.467773 31.999718,387.748474 
	C32.000141,387.329254 32.000301,387.161591 32.375481,386.994873 
	C33.500580,386.995911 34.250656,386.995941 35.000732,386.995972 
z"/>
<path fill="#DEE1E3" opacity="1.000000" stroke="none" 
	d="
M389.993835,337.603516 
	C387.248322,337.156403 387.332886,335.806488 389.645538,334.058899 
	C389.992645,335.064667 389.995026,336.133636 389.993835,337.603516 
z"/>
<path fill="#DEE1E3" opacity="1.000000" stroke="none" 
	d="
M32.000462,16.006523 
	C32.000305,15.838863 32.000145,15.671205 32.243832,15.083807 
	C32.658741,14.110039 32.829800,13.556011 33.000862,13.001984 
	C33.445541,13.001404 33.890221,13.000825 34.668045,13.001248 
	C35.000816,13.752590 35.000443,14.502930 34.625320,15.628005 
	C33.500534,16.004002 32.750500,16.005260 32.000462,16.006523 
z"/>
<path fill="#DCDFE1" opacity="1.000000" stroke="none" 
	d="
M301.060974,388.368622 
	C301.745636,388.009338 302.499084,388.006439 303.736023,388.263336 
	C304.480530,389.015839 304.741486,389.508545 305.002441,390.001221 
	C303.711517,389.575836 302.420624,389.150421 301.060974,388.368622 
z"/>
<path fill="#DEE1E3" opacity="1.000000" stroke="none" 
	d="
M370.999634,386.993896 
	C370.999756,387.161530 370.999878,387.329132 370.756073,387.916443 
	C370.341034,388.889954 370.169922,389.443756 369.998779,389.997559 
	C369.444305,389.827332 368.889832,389.657104 368.167664,389.242218 
	C367.999878,388.552765 367.999756,388.107971 368.374512,387.330261 
	C369.499481,386.996185 370.249542,386.995056 370.999634,386.993896 
z"/>
<path fill="#DEE1E3" opacity="1.000000" stroke="none" 
	d="
M387.999634,371.000000 
	C387.832001,371.000000 387.664398,371.000000 387.246704,370.624756 
	C386.996460,369.499420 386.996216,368.749329 386.995972,367.999207 
	C387.746552,367.999207 388.497101,367.999176 389.622620,367.998901 
	C389.998230,368.443024 389.998962,368.887421 389.701508,369.686951 
	C388.935455,370.361420 388.467529,370.680725 387.999634,371.000000 
z"/>
<path fill="#D9DBDE" opacity="1.000000" stroke="none" 
	d="
M387.326996,379.955261 
	C387.002167,379.555969 387.000702,379.110748 386.997803,378.331543 
	C387.100830,377.676025 387.289581,377.415619 387.781921,377.108154 
	C387.884247,377.969788 387.767273,378.939545 387.326996,379.955261 
z"/>
<path fill="#D9DBDE" opacity="1.000000" stroke="none" 
	d="
M387.106384,25.221085 
	C386.997650,24.557556 386.998993,24.112192 387.001373,23.332809 
	C387.504211,23.865629 388.005951,24.732466 388.254456,25.799385 
	C387.678345,25.898596 387.416748,25.711857 387.106384,25.221085 
z"/>
<path fill="#D9DBDE" opacity="1.000000" stroke="none" 
	d="
M379.955353,15.673864 
	C379.555969,15.998458 379.110748,15.999615 378.331543,16.002287 
	C377.676025,15.899200 377.415619,15.710341 377.108154,15.217903 
	C377.969818,15.115863 378.939667,15.233145 379.955353,15.673864 
z"/>
<path fill="#D9DBDE" opacity="1.000000" stroke="none" 
	d="
M305.335938,390.001099 
	C304.741486,389.508545 304.480530,389.015839 304.112671,388.265381 
	C304.968323,388.442261 305.930847,388.876892 306.948547,389.654541 
	C306.558929,389.998688 306.114166,389.999817 305.335938,390.001099 
z"/>
<path fill="#DEE1E3" opacity="1.000000" stroke="none" 
	d="
M371.000000,15.000519 
	C371.000000,15.168187 371.000000,15.335855 370.624756,15.753464 
	C369.499420,16.003641 368.749329,16.003880 367.999207,16.004116 
	C367.999390,15.558926 367.999542,15.113736 367.999725,14.334444 
	C368.443848,13.999928 368.888000,13.999512 369.774567,14.216711 
	C370.416840,14.707634 370.677826,14.896365 371.000000,15.000519 
z"/>
<path fill="#D9DBDE" opacity="1.000000" stroke="none" 
	d="
M377.889771,387.217224 
	C378.443756,386.999451 378.888763,387.000122 379.667480,387.001617 
	C379.236389,387.664825 378.471588,388.327240 377.353241,388.744690 
	C376.999603,388.332947 376.999512,388.166199 376.999451,387.999451 
	C377.320862,387.895996 377.581329,387.708069 377.889771,387.217224 
z"/>
<path fill="#DEE1E3" opacity="1.000000" stroke="none" 
	d="
M386.993896,32.000477 
	C387.161591,32.000317 387.329254,32.000153 387.858093,32.218605 
	C388.419800,32.710182 388.681427,32.898029 389.004150,33.000771 
	C389.002930,33.444973 389.001740,33.889172 389.000122,34.666790 
	C388.554565,35.000172 388.109375,35.000141 387.330750,34.625343 
	C386.996185,33.500546 386.995026,32.750511 386.993896,32.000477 
z"/>
<path fill="#DEE1E3" opacity="1.000000" stroke="none" 
	d="
M389.994720,344.584106 
	C389.814240,343.488251 389.636719,341.975647 389.725525,340.231140 
	C389.993774,341.388611 389.995728,342.777954 389.994720,344.584106 
z"/>
<path fill="#DCDFE1" opacity="1.000000" stroke="none" 
	d="
M370.332336,389.998596 
	C370.169922,389.443756 370.341034,388.889954 370.756073,388.167877 
	C371.167053,387.999969 371.334106,388.000336 371.751740,388.002197 
	C372.001678,388.447540 372.001038,388.891388 372.000183,389.668243 
	C371.555298,390.000702 371.110565,390.000183 370.332336,389.998596 
z"/>
<path fill="#DCDFE1" opacity="1.000000" stroke="none" 
	d="
M31.999460,388.000000 
	C32.318871,388.467773 32.638287,388.935547 32.979279,389.700439 
	C32.556221,389.998505 32.111580,389.999420 31.333471,390.000793 
	C30.999565,389.557312 30.999132,389.113403 31.248768,388.335083 
	C31.665712,388.000458 31.832590,388.000214 31.999460,388.000000 
z"/>
<path fill="#DCDFE1" opacity="1.000000" stroke="none" 
	d="
M388.004883,77.400162 
	C388.337830,77.775833 388.668488,78.551949 389.003326,79.666130 
	C388.902191,80.323341 388.714691,80.583176 388.228455,80.894424 
	C388.008789,79.936974 388.005676,78.868797 388.004883,77.400162 
z"/>
<path fill="#DCDFE1" opacity="1.000000" stroke="none" 
	d="
M371.250580,14.999989 
	C370.677826,14.896365 370.416840,14.707634 370.107910,14.215067 
	C370.467682,13.677794 370.936584,13.359782 371.702759,13.020294 
	C372.000427,13.442742 372.000824,13.886666 372.001770,14.663445 
	C371.835266,14.997353 371.668213,14.998405 371.250580,14.999989 
z"/>
<path fill="#DCDFE1" opacity="1.000000" stroke="none" 
	d="
M389.247681,32.831963 
	C388.681427,32.898029 388.419800,32.710182 388.109619,32.218346 
	C388.000214,31.832590 388.000458,31.665712 388.002197,31.248501 
	C388.447540,30.998653 388.891388,30.999140 389.668243,30.999809 
	C389.831207,31.554384 389.661194,32.108772 389.247681,32.831963 
z"/>
<path fill="#DCDFE1" opacity="1.000000" stroke="none" 
	d="
M388.000183,371.250610 
	C388.467529,370.680725 388.935455,370.361420 389.700439,370.020447 
	C389.998505,370.443512 389.999420,370.888214 390.000793,371.666473 
	C389.557281,372.000397 389.113312,372.000793 388.336517,372.001831 
	C388.002686,371.835327 388.001709,371.668274 388.000183,371.250610 
z"/>
<path fill="#DCDFE1" opacity="1.000000" stroke="none" 
	d="
M32.667381,13.001046 
	C32.829800,13.556011 32.658741,14.110039 32.243580,14.832318 
	C31.832602,15.000216 31.665722,14.999864 31.248505,14.997905 
	C30.998653,14.552443 30.999140,14.108585 30.999813,13.331773 
	C31.444633,12.999248 31.889267,12.999678 32.667381,13.001046 
z"/>
<path fill="#DEE1E3" opacity="1.000000" stroke="none" 
	d="
M376.666077,387.999451 
	C376.999512,388.166199 376.999603,388.332947 376.999878,388.749878 
	C376.555664,389.000092 376.111328,389.000153 375.333496,389.000519 
	C375.000000,388.834045 375.000000,388.667236 375.000000,388.250214 
	C375.444214,387.999817 375.888458,387.999634 376.666077,387.999451 
z"/>
<path fill="#DEE1E3" opacity="1.000000" stroke="none" 
	d="
M364.296082,389.973206 
	C364.467255,389.674500 364.936096,389.357544 365.701965,389.020081 
	C365.530579,389.318054 365.062164,389.636505 364.296082,389.973206 
z"/>
<path fill="#DCDFE1" opacity="1.000000" stroke="none" 
	d="
M389.996765,350.669006 
	C389.845459,350.432678 389.696198,349.861877 389.770874,349.143860 
	C389.996124,349.442596 389.997498,349.888580 389.996765,350.669006 
z"/>
<path fill="#DEE1E3" opacity="1.000000" stroke="none" 
	d="
M388.223938,125.896164 
	C388.104034,125.682426 388.289398,125.419617 388.781189,125.109253 
	C388.899139,125.322350 388.712982,125.584145 388.223938,125.896164 
z"/>
<path fill="#D9DBDE" opacity="1.000000" stroke="none" 
	d="
M389.998474,247.751587 
	C389.887177,247.727768 389.776703,247.452377 389.831970,247.086914 
	C389.998230,247.164581 389.998779,247.332306 389.998474,247.751587 
z"/>
<path fill="#E8EBED" opacity="1.000000" stroke="none" 
	d="
M386.633087,31.930492 
	C386.995026,32.750511 386.996185,33.500546 386.996643,34.625633 
	C386.663574,36.729610 386.041046,38.458408 386.040314,40.187473 
	C385.994171,147.783951 385.997223,255.380432 386.015808,362.976929 
	C386.016052,364.453735 386.271088,365.930450 386.701599,367.703217 
	C386.996216,368.749329 386.996460,369.499420 386.995300,370.624573 
	C386.375336,371.446136 385.319550,371.801422 385.204376,372.353088 
	C383.691589,379.598663 379.250824,383.753448 372.094818,385.226898 
	C371.720459,385.303986 371.455383,385.911682 371.069519,386.633148 
	C370.249542,386.995056 369.499481,386.996185 368.374329,386.996643 
	C366.270325,386.663544 364.541504,386.041016 362.812439,386.040283 
	C255.215973,385.994202 147.619492,385.997192 40.022999,386.015778 
	C38.546219,386.016052 37.069477,386.271149 35.296726,386.701630 
	C34.250656,386.995941 33.500580,386.995911 32.305523,386.634155 
	C31.544559,385.911682 31.279469,385.303986 30.905060,385.226837 
	C23.748489,383.752350 19.306274,379.597961 17.794697,372.350372 
	C17.679596,371.798492 16.622696,371.443054 16.003567,370.996338 
	C16.003422,370.247253 16.003284,369.498169 16.297829,368.078400 
	C16.728575,365.930939 16.983501,364.454224 16.983757,362.977417 
	C17.002338,255.380478 17.005365,147.783524 16.959259,40.186607 
	C16.958517,38.457489 16.336121,36.728645 16.003826,34.999672 
	C16.003431,34.250572 16.003036,33.501469 16.003103,32.377907 
	C16.622692,31.556776 17.679613,31.201412 17.794695,30.649620 
	C19.306215,23.402122 23.748367,19.247786 30.904787,17.773249 
	C31.279240,17.696096 31.544411,17.088551 31.930460,16.367226 
	C32.750500,16.005260 33.500534,16.004002 34.625633,16.003437 
	C36.729637,16.336325 38.458458,16.958530 40.187550,16.959272 
	C147.783981,17.005367 255.380447,17.002335 362.976898,16.983770 
	C364.453705,16.983515 365.930450,16.728760 367.703217,16.298452 
	C368.749329,16.003880 369.499420,16.003641 370.624573,16.004965 
	C371.446289,16.624954 371.801727,17.680441 372.353516,17.795664 
	C379.598724,19.308725 383.753632,23.749243 385.226868,30.905226 
	C385.303925,31.279524 385.911621,31.544590 386.633087,31.930492 
M269.500000,21.999313 
	C191.359680,21.999285 113.219368,21.998634 35.079052,22.000048 
	C25.771288,22.000217 22.000439,25.719364 22.000292,34.907536 
	C21.998522,146.036987 21.998295,257.166412 22.000753,368.295868 
	C22.000950,377.139069 25.885767,380.999542 34.782623,380.999725 
	C145.912064,381.002014 257.041504,381.001984 368.170959,380.999847 
	C377.120453,380.999664 380.999176,377.175476 380.999390,368.342285 
	C381.002197,257.046234 381.002533,145.750168 380.998566,34.454102 
	C380.998260,25.906197 377.066040,22.003044 368.467194,22.001543 
	C335.811462,21.995840 303.155731,21.999287 269.500000,21.999313 
z"/>
<path fill="#E2E5E7" opacity="1.000000" stroke="none" 
	d="
M15.707937,35.294846 
	C16.336121,36.728645 16.958517,38.457489 16.959259,40.186607 
	C17.005365,147.783524 17.002338,255.380478 16.983757,362.977417 
	C16.983501,364.454224 16.728575,365.930939 16.298157,367.703857 
	C15.669332,366.272278 15.042857,364.544678 15.042111,362.816803 
	C14.995709,255.217682 14.998748,147.618530 15.017483,40.019371 
	C15.017740,38.542900 15.274831,37.066471 15.707937,35.294846 
z"/>
<path fill="#E2E5E7" opacity="1.000000" stroke="none" 
	d="
M16.002083,371.411377 
	C16.622696,371.443054 17.679596,371.798492 17.794697,372.350372 
	C19.306274,379.597961 23.748489,383.752350 30.905060,385.226837 
	C31.279469,385.303986 31.544559,385.911682 31.930500,386.633148 
	C32.000301,387.161591 32.000141,387.329254 31.999722,387.748474 
	C31.832590,388.000214 31.665712,388.000458 31.248503,388.002197 
	C30.248606,388.002533 29.499044,388.001373 28.374664,388.000122 
	C22.557533,383.679047 15.688663,380.416473 16.002083,371.411377 
z"/>
<path fill="#F2F5F8" opacity="1.000000" stroke="none" 
	d="
M270.000000,21.999313 
	C303.155731,21.999287 335.811462,21.995840 368.467194,22.001543 
	C377.066040,22.003044 380.998260,25.906197 380.998566,34.454102 
	C381.002533,145.750168 381.002197,257.046234 380.999390,368.342285 
	C380.999176,377.175476 377.120453,380.999664 368.170959,380.999847 
	C257.041504,381.001984 145.912064,381.002014 34.782623,380.999725 
	C25.885767,380.999542 22.000950,377.139069 22.000753,368.295868 
	C21.998295,257.166412 21.998522,146.036987 22.000292,34.907536 
	C22.000439,25.719364 25.771288,22.000217 35.079052,22.000048 
	C113.219368,21.998634 191.359680,21.999285 270.000000,21.999313 
M325.024536,150.283951 
	C324.686462,149.846939 324.348358,149.409927 323.937225,148.297333 
	C322.292419,147.188019 320.647644,146.078705 318.213257,144.964859 
	C315.759613,145.166870 313.305939,145.368881 310.302185,145.633057 
	C309.942657,145.559647 309.583160,145.486221 309.081726,144.775299 
	C306.389099,143.527740 303.663116,141.177277 301.010681,141.257568 
	C295.126648,141.435684 289.265656,142.753006 283.422729,143.764526 
	C280.110657,144.337906 276.159454,144.302658 273.704437,146.148590 
	C267.077393,151.131454 259.621948,151.509354 253.535736,146.083862 
	C250.477921,143.357986 247.259186,142.948990 243.322449,145.589478 
	C242.959045,145.522125 242.595627,145.454758 242.078552,144.743057 
	C238.660385,143.517609 235.256683,141.343445 231.820648,141.291092 
	C226.782867,141.214325 220.735825,138.623642 216.122726,144.852982 
	C211.726791,144.362442 208.014420,145.676208 204.179550,149.009048 
	C200.042252,149.198914 195.863083,149.592606 193.392593,145.053894 
	C193.197861,144.696136 191.827576,144.978241 190.427078,145.010986 
	C189.950470,145.283676 189.473877,145.556381 188.088379,145.838531 
	C185.044479,145.927948 182.000595,146.017380 178.321518,146.039856 
	C177.897034,146.064148 177.472549,146.088455 176.295593,145.936615 
	C175.527313,145.894958 174.759048,145.853317 173.872498,145.149750 
	C172.776855,145.089401 170.930435,144.622772 170.707535,145.034698 
	C169.273727,147.684387 167.172791,150.519867 167.154984,153.306259 
	C166.921677,189.784317 167.057953,226.264587 166.923920,262.743652 
	C166.907364,267.246552 168.367004,268.534027 172.718796,267.655487 
	C172.817978,268.096130 172.917145,268.536804 172.982086,269.499298 
	C172.970276,269.673218 172.958466,269.847168 172.432861,270.483276 
	C173.435562,271.873474 174.390686,274.424896 175.448563,274.468231 
	C183.199219,274.785767 190.974197,274.710693 198.730911,274.447113 
	C199.807449,274.410553 200.825806,272.661743 201.871094,271.705597 
	C200.731796,270.811279 199.592514,269.916931 198.227982,268.779480 
	C198.227982,268.779480 198.029419,268.514130 198.686478,268.341461 
	C199.533875,268.067902 200.381271,267.794373 201.673157,267.862579 
	C202.441010,267.906769 203.208862,267.950958 204.824127,267.992920 
	C208.652344,268.271210 207.989777,265.494019 207.991165,263.255981 
	C208.006897,237.640976 208.049164,212.025711 207.914505,186.411407 
	C207.903214,184.262985 206.664276,182.121017 206.231537,179.362228 
	C206.422806,178.534576 206.614075,177.706909 207.360229,176.569092 
	C208.533646,175.638641 209.707062,174.708191 211.643311,173.974243 
	C212.427719,173.977097 213.212112,173.979965 214.483719,174.556107 
	C219.423141,174.831879 224.379242,172.270767 229.323257,174.620911 
	C229.424973,174.669281 229.771378,174.202896 230.714676,174.066513 
	C232.469727,174.722183 234.224792,175.377853 236.092087,176.598083 
	C236.450989,177.018982 236.809891,177.439880 237.091187,178.562546 
	C238.000275,179.708191 238.909378,180.853851 240.090714,182.473724 
	C240.387238,182.657898 240.683746,182.842072 240.982529,183.526108 
	C240.982529,183.526108 241.120956,184.006439 240.562347,184.219910 
	C240.413467,184.782013 240.264587,185.344116 239.945999,186.850952 
	C239.923203,212.633987 239.876846,238.417084 239.925827,264.199982 
	C239.929443,266.100281 240.620239,267.999298 241.001923,270.718292 
	C241.995667,271.970398 242.954590,274.273590 243.988693,274.307861 
	C252.069229,274.575531 260.168274,274.519135 268.249329,274.225037 
	C269.204620,274.190277 270.085663,272.115692 271.459534,270.444519 
	C275.223480,269.526733 276.076843,267.000549 276.060028,263.363037 
	C275.940155,237.460098 276.013062,211.556274 275.951782,185.652924 
	C275.948120,184.099075 275.317902,182.546692 275.058075,180.252869 
	C275.434875,178.583740 275.811676,176.914597 276.602661,175.147247 
	C276.602661,175.147247 277.006866,175.013718 277.667908,175.089584 
	C278.108582,175.044769 278.549225,174.999939 279.790375,174.993103 
	C280.858459,174.961121 281.926575,174.929138 283.478790,175.498398 
	C290.618042,176.006638 297.757294,176.514877 305.011932,177.460922 
	C305.011932,177.460922 305.132965,177.897217 305.137604,178.688766 
	C305.427826,180.792725 305.718048,182.896683 305.413574,185.587845 
	C305.279205,186.228348 305.027863,186.868744 305.027313,187.509369 
	C305.005981,212.538834 305.008240,237.568329 305.005432,262.597809 
	C305.004974,266.701355 307.441406,268.827301 311.022369,270.806000 
	C311.756958,275.129425 315.374359,274.771149 318.293304,274.921143 
	C323.548981,275.191254 328.832458,275.116425 334.095734,274.935974 
	C335.927673,274.873199 337.734253,274.071808 339.552429,273.607727 
	C338.707062,272.131134 337.861694,270.654510 337.696472,268.629395 
	C338.911774,267.428528 340.127106,266.227631 341.858612,265.097015 
	C343.026672,265.955078 344.194702,266.813141 345.362732,267.671204 
	C345.908478,266.221466 346.575684,264.802673 346.955658,263.310730 
	C347.194000,262.375000 347.001068,261.329346 347.001068,260.333008 
	C347.001160,238.081390 347.001495,215.829788 347.001007,193.578171 
	C347.000854,187.766190 347.173035,181.946457 346.915894,176.145798 
	C346.802765,173.594009 347.342987,170.085373 342.661591,169.512131 
	C342.110168,169.339996 341.558716,169.167862 340.410126,168.704819 
	C339.242584,168.158829 338.075012,167.612839 336.435822,166.595139 
	C336.280060,165.732452 336.124329,164.869766 336.578278,163.942719 
	C336.892731,163.509064 337.207184,163.075409 337.521637,162.641769 
	C336.802307,162.415634 336.082947,162.189484 335.143158,161.378693 
	C335.118683,161.171844 335.094208,160.965012 335.490784,160.318100 
	C335.670410,159.408966 335.850006,158.499847 336.029602,157.590714 
	C334.406494,157.365967 332.783356,157.141235 331.040192,156.936279 
	C331.040192,156.936279 331.025757,156.815430 330.800842,156.478500 
	C330.462860,156.300293 330.124878,156.122086 329.531647,155.463623 
	C329.516479,155.282990 329.501282,155.102341 330.075287,154.792297 
	C330.371918,153.751587 330.668518,152.710861 331.084045,151.252930 
	C329.007294,151.581421 327.755585,151.779404 326.080841,151.551575 
	C325.760162,151.316238 325.439514,151.080902 325.024536,150.283951 
M77.965324,146.055145 
	C73.530174,146.083740 73.043205,148.992035 73.051041,152.513275 
	C73.095932,172.678406 73.065575,192.843689 73.062157,213.008926 
	C73.059326,229.674423 73.083702,246.339981 73.034546,263.005341 
	C73.025139,266.194641 73.683548,268.819916 77.467194,268.881470 
	C84.464737,268.995331 91.469704,269.059235 98.463203,268.855713 
	C102.364693,268.742157 104.153000,265.971985 103.450554,262.025665 
	C103.219109,260.725403 102.975662,259.402649 102.973595,258.089813 
	C102.942093,238.091278 102.585541,218.082596 103.139122,198.099380 
	C103.342270,190.765945 106.479248,183.919540 111.299980,177.916199 
	C114.172813,174.338623 118.326897,174.696869 121.672882,172.910461 
	C129.450104,168.758301 137.050919,169.024994 144.611404,172.832001 
	C148.625641,174.853363 150.490891,173.135773 151.847916,169.756973 
	C153.395035,165.904861 154.856689,162.017548 156.303772,158.126312 
	C158.984390,150.918015 155.346222,145.300751 147.675812,145.137161 
	C139.594711,144.964813 131.479385,144.702850 123.434853,145.271027 
	C119.755951,145.530869 116.010437,147.309738 112.662086,149.089890 
	C109.365005,150.842804 106.036125,152.699463 103.179085,149.557800 
	C100.180489,146.260468 96.825233,145.876480 92.878975,146.019684 
	C88.218872,146.188766 83.547775,146.054749 77.965324,146.055145 
z"/>
<path fill="#64707F" opacity="1.000000" stroke="none" 
	d="
M241.120956,184.006439 
	C241.120956,184.006439 240.982529,183.526108 241.046997,183.074310 
	C241.111450,182.622498 241.130585,182.198822 241.113403,181.901062 
	C241.093597,181.404480 241.090973,181.205658 241.354477,180.741898 
	C241.348419,178.456238 241.810089,175.689163 240.661469,174.559753 
	C237.647812,171.596436 234.246033,168.059357 230.419861,167.126938 
	C225.201218,165.855194 218.663254,165.093903 214.117798,167.197266 
	C208.360474,169.861420 204.036102,175.622192 198.802750,179.854736 
	C194.108826,176.283218 195.115585,180.667023 195.081421,182.324356 
	C194.906433,190.811218 194.999588,199.303619 194.999435,207.794083 
	C194.999130,224.109085 194.919312,240.424789 195.058395,256.738586 
	C195.090805,260.538391 193.950699,262.452026 189.933517,262.016174 
	C188.781738,261.891205 187.604889,262.000610 186.439545,261.997040 
	C180.024353,261.977356 180.005814,261.976746 180.004379,255.616745 
	C179.997391,224.818008 179.997757,194.019287 180.011749,163.220551 
	C180.012421,161.730576 179.866745,160.145081 180.305603,158.768707 
	C181.604370,154.695343 179.812286,153.170700 176.053192,152.635956 
	C176.557495,151.624786 176.910324,150.606247 177.524521,150.411331 
	C181.845612,149.040085 192.188065,152.837051 195.345291,156.270523 
	C196.522049,157.550217 199.487595,158.903137 200.520432,158.302322 
	C205.218979,155.569229 209.519562,152.152008 214.255524,149.230286 
	C215.767090,150.319946 216.965454,151.849548 218.209137,151.887344 
	C225.692719,152.114807 233.191345,152.130341 240.672256,151.862671 
	C241.825317,151.821426 242.912964,149.952255 244.387268,148.968674 
	C249.798904,152.081161 254.674713,155.535706 259.999115,158.034317 
	C262.079773,159.010696 265.512115,158.558792 267.728302,157.500198 
	C272.769806,155.092041 277.413544,151.859970 282.288513,149.084976 
	C283.010223,148.674179 284.110382,148.928314 285.036987,149.302429 
	C285.885925,150.481476 286.716736,151.861877 287.583282,151.884659 
	C294.470001,152.065750 301.367889,152.107819 308.249939,151.854843 
	C309.209778,151.819550 310.101959,149.943893 311.403442,148.929886 
	C313.929321,150.270767 316.104706,151.559875 318.218475,152.943222 
	C321.149353,154.861359 324.108826,156.748871 326.923767,158.828552 
	C334.338348,164.306473 332.806488,173.977859 336.737701,180.989868 
	C335.554993,183.022263 334.114410,184.975296 334.100952,186.938126 
	C333.943176,209.917984 333.877289,232.900497 334.098328,255.879318 
	C334.145233,260.756470 332.553497,262.669037 327.792145,262.013519 
	C326.975006,261.901031 326.113129,261.891937 325.299011,262.014771 
	C320.091919,262.800415 318.844879,260.371948 318.900635,255.471115 
	C319.133636,234.990753 319.026794,214.506104 318.956696,194.023315 
	C318.949463,191.906677 318.542236,189.733749 317.905334,187.718155 
	C317.749359,187.224518 315.954712,187.248703 314.650208,186.765152 
	C312.690826,182.861603 311.668518,178.637436 309.130920,175.740768 
	C305.836182,171.979858 301.699280,167.420975 297.268799,166.552460 
	C290.703247,165.265442 282.798218,163.778061 277.539032,170.949570 
	C277.265167,171.323029 276.725494,171.504868 276.303223,171.765701 
	C270.425232,175.396362 266.005096,179.868530 266.035522,187.476440 
	C266.123413,209.456573 266.063141,231.437271 266.071381,253.417755 
	C266.072449,256.301941 266.134064,259.186096 265.798767,261.912231 
	C260.258423,261.856750 255.074478,261.807831 249.929596,262.232422 
	C249.195267,262.293030 248.650223,264.647217 247.640686,265.952148 
	C246.184189,264.647675 245.104584,263.330963 244.414917,261.955292 
	C245.536072,260.577698 246.897034,259.262695 246.904724,257.939789 
	C247.035782,235.374023 247.053497,212.806854 246.870743,190.241806 
	C246.859253,188.822220 244.994308,187.417633 243.738953,185.829269 
	C242.697830,185.103790 241.909393,184.555115 241.120956,184.006439 
z"/>
<path fill="#B1BBCE" opacity="1.000000" stroke="none" 
	d="
M78.423386,146.053650 
	C83.547775,146.054749 88.218872,146.188766 92.878975,146.019684 
	C96.825233,145.876480 100.180489,146.260468 103.179085,149.557800 
	C106.036125,152.699463 109.365005,150.842804 112.662086,149.089890 
	C116.010437,147.309738 119.755951,145.530869 123.434853,145.271027 
	C131.479385,144.702850 139.594711,144.964813 147.675812,145.137161 
	C155.346222,145.300751 158.984390,150.918015 156.303772,158.126312 
	C154.856689,162.017548 153.395035,165.904861 151.847916,169.756973 
	C150.490891,173.135773 148.625641,174.853363 144.611404,172.832001 
	C137.050919,169.024994 129.450104,168.758301 121.672882,172.910461 
	C118.326897,174.696869 114.172813,174.338623 111.299980,177.916199 
	C106.479248,183.919540 103.342270,190.765945 103.139122,198.099380 
	C102.585541,218.082596 102.942093,238.091278 102.973595,258.089813 
	C102.975662,259.402649 103.219109,260.725403 103.450554,262.025665 
	C104.153000,265.971985 102.364693,268.742157 98.463203,268.855713 
	C91.469704,269.059235 84.464737,268.995331 77.467194,268.881470 
	C73.683548,268.819916 73.025139,266.194641 73.034546,263.005341 
	C73.083702,246.339981 73.059326,229.674423 73.062157,213.008926 
	C73.065575,192.843689 73.095932,172.678406 73.051041,152.513275 
	C73.043205,148.992035 73.530174,146.083740 78.423386,146.053650 
z"/>
<path fill="#89939E" opacity="1.000000" stroke="none" 
	d="
M266.167633,262.070282 
	C266.134064,259.186096 266.072449,256.301941 266.071381,253.417755 
	C266.063141,231.437271 266.123413,209.456573 266.035522,187.476440 
	C266.005096,179.868530 270.425232,175.396362 276.303223,171.765701 
	C276.725494,171.504868 277.265167,171.323029 277.539032,170.949570 
	C282.798218,163.778061 290.703247,165.265442 297.268799,166.552460 
	C301.699280,167.420975 305.836182,171.979858 309.130920,175.740768 
	C311.668518,178.637436 312.690826,182.861603 314.660645,187.229797 
	C314.934296,212.287827 315.011902,236.612045 314.853577,260.934753 
	C314.828735,264.752258 315.655151,266.440338 319.798859,266.130524 
	C324.272156,265.796051 328.801910,265.847260 333.284149,266.114502 
	C337.120300,266.343262 338.437531,264.371124 338.425537,261.094788 
	C338.333496,235.951874 338.195007,210.809097 338.006683,185.666748 
	C337.994812,184.080795 337.443268,182.498886 337.142792,180.915085 
	C332.806488,173.977859 334.338348,164.306473 326.923767,158.828552 
	C324.108826,156.748871 321.149353,154.861359 318.218475,152.943222 
	C316.104706,151.559875 313.929321,150.270767 311.017700,148.768219 
	C301.847809,148.689468 293.441650,148.782135 285.035461,148.874802 
	C284.110382,148.928314 283.010223,148.674179 282.288513,149.084976 
	C277.413544,151.859970 272.769806,155.092041 267.728302,157.500198 
	C265.512115,158.558792 262.079773,159.010696 259.999115,158.034317 
	C254.674713,155.535706 249.798904,152.081161 243.963760,148.944641 
	C236.142944,148.580734 229.104095,148.160126 222.060181,148.042969 
	C219.367157,147.998169 216.662582,148.647705 213.963272,148.980835 
	C209.519562,152.152008 205.218979,155.569229 200.520432,158.302322 
	C199.487595,158.903137 196.522049,157.550217 195.345291,156.270523 
	C192.188065,152.837051 181.845612,149.040085 177.524521,150.411331 
	C176.910324,150.606247 176.557495,151.624786 175.757690,152.657837 
	C175.043839,153.108002 174.655975,153.162476 174.191559,152.830566 
	C175.092697,150.333710 176.070374,148.223236 177.048065,146.112762 
	C177.472549,146.088455 177.897034,146.064148 178.734528,146.451447 
	C183.159683,147.527863 187.171844,148.192673 191.473022,149.015869 
	C193.156982,149.794693 194.551895,150.415146 195.938690,151.350555 
	C195.989212,152.081161 196.047867,152.496841 196.231705,153.246399 
	C199.046677,155.978836 201.008240,155.736526 202.291260,151.959991 
	C202.946396,151.836655 203.322266,151.774185 204.075104,151.780212 
	C208.668747,149.856689 212.885437,147.864655 217.444763,145.871948 
	C218.471344,145.834854 219.155273,145.798462 220.316635,145.841705 
	C226.245453,145.875793 231.696808,145.830215 237.573242,145.812439 
	C239.409622,145.689285 240.820923,145.538345 242.232224,145.387390 
	C242.595627,145.454758 242.959045,145.522125 243.895355,145.813202 
	C245.951477,146.392487 247.434692,146.748062 248.977158,147.441711 
	C250.724304,148.812546 252.412186,149.845306 254.441193,150.947723 
	C256.496857,151.709518 258.211365,152.401657 260.001801,153.436325 
	C262.310608,156.187759 264.579895,157.451614 266.999634,153.999512 
	C267.000000,154.000000 266.998779,153.999023 267.317383,153.966599 
	C268.108521,153.310730 268.581055,152.687271 269.360107,151.918594 
	C270.744812,151.475983 271.822998,151.178589 273.228027,150.891479 
	C274.067169,150.307190 274.579437,149.712631 275.361389,148.965363 
	C276.381866,148.493393 277.132629,148.174103 278.203003,147.876160 
	C279.070587,147.353439 279.618500,146.809418 280.519531,146.223358 
	C281.582489,146.145859 282.292389,146.110382 283.157532,146.286743 
	C283.875183,146.320587 284.437592,146.142624 285.418335,145.959793 
	C287.506165,145.894333 289.175659,145.833740 291.320953,145.851349 
	C296.578979,145.884430 301.361206,145.839310 306.536011,145.819550 
	C307.693573,145.700867 308.458588,145.556839 309.223633,145.412811 
	C309.583160,145.486221 309.942657,145.559647 310.955750,145.767105 
	C312.689728,146.010437 313.770081,146.119720 314.949402,146.542831 
	C316.772278,147.843628 318.496277,148.830597 320.563843,149.859863 
	C321.593658,149.992767 322.279846,150.083344 323.057922,150.390808 
	C323.356262,150.853119 323.597015,151.058411 323.951172,151.535797 
	C324.739685,152.196167 325.449036,152.544281 326.357239,153.147369 
	C327.532745,153.908798 328.509399,154.415237 329.486084,154.921677 
	C329.501282,155.102341 329.516479,155.282990 329.479675,155.892670 
	C329.960388,156.486298 330.493073,156.650864 331.025757,156.815430 
	C331.025757,156.815430 331.040192,156.936279 331.042419,157.270218 
	C331.676697,158.432007 332.308685,159.259857 332.941162,160.426682 
	C333.573120,161.534286 334.204590,162.302933 334.978943,163.281433 
	C335.404053,163.663223 335.686310,163.835159 335.968597,164.007080 
	C336.124329,164.869766 336.280060,165.732452 336.655029,167.190353 
	C337.296906,169.153168 337.719574,170.520767 338.090424,172.237183 
	C338.361145,173.390656 338.683655,174.195328 339.038971,175.318054 
	C339.690735,176.428284 340.309692,177.220490 340.936218,178.438568 
	C340.771667,181.513901 340.454437,184.163132 340.450226,186.812836 
	C340.411743,210.955887 340.406952,235.099091 340.467407,259.242065 
	C340.472229,261.170990 341.037567,263.098572 341.342407,265.026764 
	C340.127106,266.227631 338.911774,267.428528 336.941528,268.635071 
	C328.114838,268.476685 320.043060,268.312622 311.996613,267.868896 
	C311.984497,267.405823 311.947083,267.222412 311.937622,266.569733 
	C311.945068,261.400208 311.924530,256.699951 312.216797,251.717743 
	C312.669434,250.794800 312.930420,250.153946 312.931366,249.512711 
	C312.957092,231.888336 312.977173,214.263840 312.914551,196.639679 
	C312.910248,195.425781 312.255676,194.214203 311.911652,192.613892 
	C311.890137,191.193207 311.860504,190.160156 311.887451,188.733536 
	C310.360626,185.182495 308.777222,182.025009 307.170959,178.625214 
	C307.148071,178.382919 307.081512,177.900711 307.070740,177.532501 
	C306.605743,173.604767 304.154541,172.832764 300.833801,172.786072 
	C300.057709,172.104019 299.551758,171.533188 298.992126,170.642975 
	C298.270294,169.924011 297.602142,169.524445 296.612610,169.097992 
	C295.861847,169.048843 295.432434,169.026581 294.753693,168.995941 
	C294.504333,168.987579 294.005402,168.992828 293.560242,168.974274 
	C288.108337,168.230392 283.732513,169.577255 279.621338,172.962433 
	C278.513763,173.650269 277.760315,174.331985 277.006866,175.013718 
	C277.006866,175.013718 276.602661,175.147247 276.035461,175.142227 
	C273.653107,178.458237 270.325897,181.751724 270.264832,185.104706 
	C269.822113,209.415848 269.879395,233.741074 270.196686,258.056396 
	C270.252045,262.298340 270.526031,266.001801 266.485718,268.877136 
	C258.734650,268.735077 251.393051,268.558380 243.908005,267.985199 
	C243.157043,265.438873 242.032501,263.291656 242.021469,261.138763 
	C241.902176,237.900528 241.999954,214.661194 241.886093,191.422913 
	C241.877060,189.581177 240.732529,187.744980 240.115692,185.906219 
	C240.264587,185.344116 240.413467,184.782013 240.841644,184.113174 
	C241.909393,184.555115 242.697830,185.103790 243.783127,186.215424 
	C244.053558,189.697205 244.004181,192.615997 244.004364,195.534805 
	C244.005768,217.694611 244.016891,239.854416 244.024979,262.014221 
	C245.104584,263.330963 246.184189,264.647675 248.106308,265.980133 
	C253.374252,266.005890 257.807343,265.860779 262.222504,266.079071 
	C265.302490,266.231323 266.416443,264.946625 266.167633,262.070282 
z"/>
<path fill="#FBFCFD" opacity="1.000000" stroke="none" 
	d="
M341.600525,265.061890 
	C341.037567,263.098572 340.472229,261.170990 340.467407,259.242065 
	C340.406952,235.099091 340.411743,210.955887 340.450226,186.812836 
	C340.454437,184.163132 340.771667,181.513901 341.245117,178.213715 
	C341.705688,176.041443 341.864838,174.519913 342.281677,172.790024 
	C342.691956,171.720703 342.844574,170.859741 342.997162,169.998779 
	C347.342987,170.085373 346.802765,173.594009 346.915894,176.145798 
	C347.173035,181.946457 347.000854,187.766190 347.001007,193.578171 
	C347.001495,215.829788 347.001160,238.081390 347.001068,260.333008 
	C347.001068,261.329346 347.194000,262.375000 346.955658,263.310730 
	C346.575684,264.802673 345.908478,266.221466 345.362732,267.671204 
	C344.194702,266.813141 343.026672,265.955078 341.600525,265.061890 
z"/>
<path fill="#E8EBED" opacity="1.000000" stroke="none" 
	d="
M172.486588,267.016907 
	C168.367004,268.534027 166.907364,267.246552 166.923920,262.743652 
	C167.057953,226.264587 166.921677,189.784317 167.154984,153.306259 
	C167.172791,150.519867 169.273727,147.684387 170.707535,145.034698 
	C170.930435,144.622772 172.776855,145.089401 173.735092,145.835098 
	C173.043716,148.497452 172.012680,150.473007 172.006683,152.451675 
	C171.901352,187.213181 171.912247,221.975067 171.945892,256.736816 
	C171.947281,258.170593 172.416641,259.603882 172.708755,261.418182 
	C173.059692,263.512939 173.369843,265.226959 173.379456,266.925354 
	C172.881470,266.945496 172.684021,266.981201 172.486588,267.016907 
z"/>
<path fill="#FBFCFD" opacity="1.000000" stroke="none" 
	d="
M205.995697,179.976044 
	C206.664276,182.121017 207.903214,184.262985 207.914505,186.411407 
	C208.049164,212.025711 208.006897,237.640976 207.991165,263.255981 
	C207.989777,265.494019 208.652344,268.271210 204.382141,267.701660 
	C203.340515,266.561127 202.740891,265.711853 201.871735,264.808228 
	C201.434311,264.827454 201.266418,264.901031 201.184448,264.599182 
	C201.227982,263.455963 201.185577,262.688171 201.274933,261.470947 
	C201.424042,237.157303 201.350693,213.292343 201.565765,189.429977 
	C201.594849,186.204758 203.072662,182.992599 204.227692,179.849731 
	C205.049057,179.942078 205.522385,179.959061 205.995697,179.976044 
z"/>
<path fill="#BFC5CC" opacity="1.000000" stroke="none" 
	d="
M266.895142,268.842499 
	C270.526031,266.001801 270.252045,262.298340 270.196686,258.056396 
	C269.879395,233.741074 269.822113,209.415848 270.264832,185.104706 
	C270.325897,181.751724 273.653107,178.458237 275.828369,175.191345 
	C275.811676,176.914597 275.434875,178.583740 274.719971,180.917145 
	C274.244720,183.385818 273.989838,185.190079 273.988251,186.994583 
	C273.966217,212.080215 273.934540,237.166046 274.030579,262.251343 
	C274.045135,266.053802 273.337738,268.868347 268.583405,269.172058 
	C267.791656,269.041382 267.343414,268.941925 266.895142,268.842499 
z"/>
<path fill="#89939E" opacity="1.000000" stroke="none" 
	d="
M203.879639,179.774384 
	C203.072662,182.992599 201.594849,186.204758 201.565765,189.429977 
	C201.350693,213.292343 201.424042,237.157303 200.859955,261.442047 
	C199.893478,260.371918 199.111526,258.882080 199.107956,257.390381 
	C199.046341,231.609543 199.080505,205.828491 199.093735,180.047485 
	C204.036102,175.622192 208.360474,169.861420 214.117798,167.197266 
	C218.663254,165.093903 225.201218,165.855194 230.419861,167.126938 
	C234.246033,168.059357 237.647812,171.596436 240.661469,174.559753 
	C241.810089,175.689163 241.348419,178.456238 241.050858,180.604126 
	C239.376999,179.774460 238.272888,178.817627 237.168793,177.860779 
	C236.809891,177.439880 236.450989,177.018982 235.949448,175.978546 
	C229.101349,167.008774 217.168930,166.251816 210.880478,173.777740 
	C209.707062,174.708191 208.533646,175.638641 206.767365,176.778107 
	C205.409546,177.916199 204.644592,178.845291 203.879639,179.774384 
z"/>
<path fill="#E8EBED" opacity="1.000000" stroke="none" 
	d="
M311.909637,267.038971 
	C311.947083,267.222412 311.984497,267.405823 312.004028,268.151672 
	C311.663727,269.154053 311.341309,269.593994 311.018860,270.033936 
	C307.441406,268.827301 305.004974,266.701355 305.005432,262.597809 
	C305.008240,237.568329 305.005981,212.538834 305.027313,187.509369 
	C305.027863,186.868744 305.279205,186.228348 305.987793,185.528625 
	C307.377838,189.950089 308.845398,194.423126 308.898254,198.912811 
	C309.145996,219.962616 308.983337,241.017059 309.035217,262.069672 
	C309.040314,264.145660 307.971985,267.119476 311.909637,267.038971 
z"/>
<path fill="#ABB2BA" opacity="1.000000" stroke="none" 
	d="
M172.667984,261.037415 
	C172.416641,259.603882 171.947281,258.170593 171.945892,256.736816 
	C171.912247,221.975067 171.901352,187.213181 172.006683,152.451675 
	C172.012680,150.473007 173.043716,148.497452 173.794220,146.166061 
	C174.759048,145.853317 175.527313,145.894958 176.671829,146.024689 
	C176.070374,148.223236 175.092697,150.333710 174.143951,153.275101 
	C174.193054,189.751419 174.213211,225.396835 173.842041,261.037689 
	C173.189789,261.034576 172.928894,261.035980 172.667984,261.037415 
z"/>
<path fill="#CED2D8" opacity="1.000000" stroke="none" 
	d="
M311.937622,266.569733 
	C307.971985,267.119476 309.040314,264.145660 309.035217,262.069672 
	C308.983337,241.017059 309.145996,219.962616 308.898254,198.912811 
	C308.845398,194.423126 307.377838,189.950089 306.285156,185.235016 
	C305.718048,182.896683 305.427826,180.792725 305.458252,178.311920 
	C306.213104,177.923615 306.647308,177.912155 307.081512,177.900711 
	C307.081512,177.900711 307.148071,178.382919 307.138367,179.008331 
	C308.696106,182.798187 310.263489,185.962646 311.830872,189.127106 
	C311.860504,190.160156 311.890137,191.193207 311.635895,192.920898 
	C311.249573,212.501236 311.139465,231.386917 311.081207,250.272751 
	C311.079407,250.847534 311.617584,251.423981 311.903992,251.999664 
	C311.924530,256.699951 311.945068,261.400208 311.937622,266.569733 
z"/>
<path fill="#CED2D8" opacity="1.000000" stroke="none" 
	d="
M283.002289,146.074905 
	C282.292389,146.110382 281.582489,146.145859 280.192078,146.169403 
	C278.968872,146.723267 278.426117,147.289047 277.883392,147.854828 
	C277.132629,148.174103 276.381866,148.493393 275.036682,148.959869 
	C273.928589,149.698425 273.414856,150.289810 272.901154,150.881195 
	C271.822998,151.178589 270.744812,151.475983 269.031799,151.930283 
	C267.930878,152.724472 267.464844,153.361755 266.998779,153.999023 
	C266.998779,153.999023 267.000000,154.000000 266.595459,153.991486 
	C264.102539,153.686569 262.014221,153.390182 259.925873,153.093781 
	C258.211365,152.401657 256.496857,151.709518 254.360382,150.625885 
	C252.264923,149.190811 250.591415,148.147217 248.917892,147.103638 
	C247.434692,146.748062 245.951477,146.392487 244.171387,145.771729 
	C247.259186,142.948990 250.477921,143.357986 253.535736,146.083862 
	C259.621948,151.509354 267.077393,151.131454 273.704437,146.148590 
	C276.159454,144.302658 280.110657,144.337906 283.422729,143.764526 
	C289.265656,142.753006 295.126648,141.435684 301.010681,141.257568 
	C303.663116,141.177277 306.389099,143.527740 309.152679,145.094055 
	C308.458588,145.556839 307.693573,145.700867 306.385559,145.457123 
	C300.768707,143.711304 295.705688,142.584717 290.845184,145.773148 
	C289.175659,145.833740 287.506165,145.894333 285.265747,145.741470 
	C284.130676,145.710312 283.566467,145.892609 283.002289,146.074905 
z"/>
<path fill="#FBFCFD" opacity="1.000000" stroke="none" 
	d="
M266.485718,268.877136 
	C267.343414,268.941925 267.791656,269.041382 268.652832,269.466095 
	C269.710907,270.189789 270.356018,270.588226 271.001160,270.986664 
	C270.085663,272.115692 269.204620,274.190277 268.249329,274.225037 
	C260.168274,274.519135 252.069229,274.575531 243.988693,274.307861 
	C242.954590,274.273590 241.995667,271.970398 241.330353,270.314636 
	C242.456345,269.401184 243.253906,268.891449 244.051453,268.381714 
	C251.393051,268.558380 258.734650,268.735077 266.485718,268.877136 
z"/>
<path fill="#FBFCFD" opacity="1.000000" stroke="none" 
	d="
M311.020630,270.419983 
	C311.341309,269.593994 311.663727,269.154053 311.978760,268.431335 
	C320.043060,268.312622 328.114838,268.476685 336.601440,268.909332 
	C337.861694,270.654510 338.707062,272.131134 339.552429,273.607727 
	C337.734253,274.071808 335.927673,274.873199 334.095734,274.935974 
	C328.832458,275.116425 323.548981,275.191254 318.293304,274.921143 
	C315.374359,274.771149 311.756958,275.129425 311.020630,270.419983 
z"/>
<path fill="#E8EBED" opacity="1.000000" stroke="none" 
	d="
M271.230347,270.715576 
	C270.356018,270.588226 269.710907,270.189789 268.996338,269.497314 
	C273.337738,268.868347 274.045135,266.053802 274.030579,262.251343 
	C273.934540,237.166046 273.966217,212.080215 273.988251,186.994583 
	C273.989838,185.190079 274.244720,183.385818 274.680542,181.287537 
	C275.317902,182.546692 275.948120,184.099075 275.951782,185.652924 
	C276.013062,211.556274 275.940155,237.460098 276.060028,263.363037 
	C276.076843,267.000549 275.223480,269.526733 271.230347,270.715576 
z"/>
<path fill="#BFC5CC" opacity="1.000000" stroke="none" 
	d="
M243.908020,267.985229 
	C243.253906,268.891449 242.456345,269.401184 241.325195,269.904907 
	C240.620239,267.999298 239.929443,266.100281 239.925827,264.199982 
	C239.876846,238.417084 239.923203,212.633987 240.030853,186.378586 
	C240.732529,187.744980 241.877060,189.581177 241.886093,191.422913 
	C241.999954,214.661194 241.902176,237.900528 242.021469,261.138763 
	C242.032501,263.291656 243.157043,265.438873 243.908020,267.985229 
z"/>
<path fill="#FBFCFD" opacity="1.000000" stroke="none" 
	d="
M198.453217,269.022614 
	C199.592514,269.916931 200.731796,270.811279 201.871094,271.705597 
	C200.825806,272.661743 199.807449,274.410553 198.730911,274.447113 
	C190.974197,274.710693 183.199219,274.785767 175.448563,274.468231 
	C174.390686,274.424896 173.435562,271.873474 173.118347,270.263000 
	C181.169724,270.358459 188.534225,270.740326 195.903503,270.898743 
	C196.739578,270.916718 197.602661,269.678375 198.453217,269.022614 
z"/>
<path fill="#CED2D8" opacity="1.000000" stroke="none" 
	d="
M219.839188,145.762054 
	C219.155273,145.798462 218.471344,145.834854 217.409592,145.579254 
	C217.013138,145.090805 216.994522,144.894333 216.975891,144.697861 
	C220.735825,138.623642 226.782867,141.214325 231.820648,141.291092 
	C235.256683,141.343445 238.660385,143.517609 242.155396,145.065216 
	C240.820923,145.538345 239.409622,145.689285 237.420517,145.451691 
	C232.209915,144.717499 227.580627,144.257828 222.941605,144.115448 
	C221.925262,144.084274 220.874237,145.183441 219.839188,145.762054 
z"/>
<path fill="#DEE1E3" opacity="1.000000" stroke="none" 
	d="
M198.340607,268.901062 
	C197.602661,269.678375 196.739578,270.916718 195.903503,270.898743 
	C188.534225,270.740326 181.169724,270.358459 173.375244,270.031921 
	C172.958466,269.847168 172.970276,269.673218 173.293808,269.216370 
	C174.070557,268.621674 174.535583,268.309937 175.468018,268.037201 
	C183.300095,268.222168 190.664764,268.368134 198.029419,268.514099 
	C198.029419,268.514130 198.227982,268.779480 198.340607,268.901062 
z"/>
<path fill="#89939E" opacity="1.000000" stroke="none" 
	d="
M198.357941,268.427795 
	C190.664764,268.368134 183.300095,268.222168 175.329712,267.776001 
	C174.375977,267.297485 174.028000,267.119232 173.680008,266.940948 
	C173.369843,265.226959 173.059692,263.512939 172.708755,261.418182 
	C172.928894,261.035980 173.189789,261.034576 174.086334,261.318420 
	C175.146744,263.766693 174.798401,266.340515 178.443970,266.093018 
	C185.986038,265.581055 193.545944,265.331909 201.098511,264.974670 
	C201.266418,264.901031 201.434311,264.827454 201.545471,265.178894 
	C201.402069,266.242889 201.315369,266.881866 201.228668,267.520844 
	C200.381271,267.794373 199.533875,268.067902 198.357941,268.427795 
z"/>
<path fill="#E8EBED" opacity="1.000000" stroke="none" 
	d="
M304.896545,177.023102 
	C297.757294,176.514877 290.618042,176.006638 283.446167,174.929962 
	C286.341431,171.339462 289.931274,170.392151 294.257538,170.994507 
	C294.504059,171.008560 294.998779,171.010239 295.065247,171.362366 
	C297.083344,172.482513 299.034973,173.250519 301.184387,174.276978 
	C302.553650,175.364670 303.725098,176.193878 304.896545,177.023102 
z"/>
<path fill="#B4BBC3" opacity="1.000000" stroke="none" 
	d="
M211.261902,173.875992 
	C217.168930,166.251816 229.101349,167.008774 235.893326,175.696259 
	C234.224792,175.377853 232.469727,174.722183 230.146545,173.728882 
	C223.891449,169.691010 218.231201,169.905899 213.996521,173.982819 
	C213.212112,173.979965 212.427719,173.977097 211.261902,173.875992 
z"/>
<path fill="#E8EBED" opacity="1.000000" stroke="none" 
	d="
M195.946823,151.035599 
	C194.551895,150.415146 193.156982,149.794693 191.454727,148.701309 
	C191.107468,147.807709 191.067535,147.387039 191.027756,146.632812 
	C191.019806,145.853836 191.011719,145.408401 191.003632,144.962967 
	C191.827576,144.978241 193.197861,144.696136 193.392593,145.053894 
	C195.863083,149.592606 200.042252,149.198914 204.491516,149.295013 
	C204.435028,150.291229 204.066574,151.001480 203.698120,151.711731 
	C203.322266,151.774185 202.946396,151.836655 201.956665,151.925171 
	C200.895050,151.971588 200.447281,151.991974 199.768341,151.733917 
	C198.340378,151.315521 197.143600,151.175568 195.946823,151.035599 
z"/>
<path fill="#DEE1E3" opacity="1.000000" stroke="none" 
	d="
M214.240112,174.269470 
	C218.231201,169.905899 223.891449,169.691010 229.791016,173.683929 
	C229.771378,174.202896 229.424973,174.669281 229.323257,174.620911 
	C224.379242,172.270767 219.423141,174.831879 214.240112,174.269470 
z"/>
<path fill="#BFC5CC" opacity="1.000000" stroke="none" 
	d="
M294.011017,170.980469 
	C289.931274,170.392151 286.341431,171.339462 283.204102,174.629364 
	C281.926575,174.929138 280.858459,174.961121 279.495850,174.716095 
	C279.459351,173.944839 279.717407,173.450592 279.975464,172.956329 
	C283.732513,169.577255 288.108337,168.230392 293.558105,169.306381 
	C294.004425,170.098190 294.007721,170.539322 294.011017,170.980469 
z"/>
<path fill="#ABB2BA" opacity="1.000000" stroke="none" 
	d="
M204.075104,151.780212 
	C204.066574,151.001480 204.435028,150.291229 204.940598,149.309174 
	C208.014420,145.676208 211.726791,144.362442 216.549316,144.775421 
	C216.994522,144.894333 217.013138,145.090805 217.066925,145.579956 
	C212.885437,147.864655 208.668747,149.856689 204.075104,151.780212 
z"/>
<path fill="#CED2D8" opacity="1.000000" stroke="none" 
	d="
M342.023987,172.998383 
	C341.864838,174.519913 341.705688,176.041443 341.237610,177.787842 
	C340.309692,177.220490 339.690735,176.428284 339.292542,175.125153 
	C339.056244,173.705597 338.599213,172.796982 338.142212,171.888367 
	C337.719574,170.520767 337.296906,169.153168 336.890869,167.426208 
	C338.075012,167.612839 339.242584,168.158829 340.704742,169.216934 
	C341.340912,170.818832 341.682434,171.908600 342.023987,172.998383 
z"/>
<path fill="#ABB2BA" opacity="1.000000" stroke="none" 
	d="
M191.027618,146.966370 
	C191.067535,147.387039 191.107468,147.807709 191.165710,148.542938 
	C187.171844,148.192673 183.159683,147.527863 179.052109,146.484924 
	C182.000595,146.017380 185.044479,145.927948 188.687332,146.117523 
	C189.866730,146.586472 190.447159,146.776413 191.027618,146.966370 
z"/>
<path fill="#E8EBED" opacity="1.000000" stroke="none" 
	d="
M332.940674,160.087723 
	C332.308685,159.259857 331.676697,158.432007 331.102478,157.260315 
	C332.783356,157.141235 334.406494,157.365967 336.029602,157.590714 
	C335.850006,158.499847 335.670410,159.408966 335.000488,160.503342 
	C333.987000,160.488297 333.463837,160.288010 332.940674,160.087723 
z"/>
<path fill="#E8EBED" opacity="1.000000" stroke="none" 
	d="
M322.966064,150.173920 
	C322.279846,150.083344 321.593658,149.992767 320.526825,149.542328 
	C319.767883,148.450043 319.389587,147.717606 319.016235,146.649399 
	C319.015076,145.865555 319.008972,145.417465 319.002838,144.969391 
	C320.647644,146.078705 322.292419,147.188019 323.734375,148.772247 
	C323.343048,149.556091 323.154541,149.865005 322.966064,150.173920 
z"/>
<path fill="#ABB2BA" opacity="1.000000" stroke="none" 
	d="
M304.954224,177.242004 
	C303.725098,176.193878 302.553650,175.364670 301.207397,173.995911 
	C301.056427,173.270020 301.080231,173.083649 301.104004,172.897293 
	C304.154541,172.832764 306.605743,173.604767 307.070740,177.532501 
	C306.647308,177.912155 306.213104,177.923615 305.455933,177.916138 
	C305.132965,177.897217 305.011932,177.460922 304.954224,177.242004 
z"/>
<path fill="#CED2D8" opacity="1.000000" stroke="none" 
	d="
M318.608032,144.967133 
	C319.008972,145.417465 319.015076,145.865555 318.659607,146.630661 
	C317.148834,146.708130 315.999664,146.468567 314.850464,146.229004 
	C313.770081,146.119720 312.689728,146.010437 311.230835,145.736023 
	C313.305939,145.368881 315.759613,145.166870 318.608032,144.967133 
z"/>
<path fill="#E8EBED" opacity="1.000000" stroke="none" 
	d="
M329.780701,154.856995 
	C328.509399,154.415237 327.532745,153.908798 326.422302,152.911346 
	C326.288544,152.420319 326.503906,151.977386 326.503906,151.977386 
	C327.755585,151.779404 329.007294,151.581421 331.084045,151.252930 
	C330.668518,152.710861 330.371918,153.751587 329.780701,154.856995 
z"/>
<path fill="#BFC5CC" opacity="1.000000" stroke="none" 
	d="
M237.129990,178.211670 
	C238.272888,178.817627 239.376999,179.774460 240.784714,180.869080 
	C241.090973,181.205658 241.093597,181.404480 240.786835,181.835938 
	C240.257782,182.045532 240.038132,182.022522 239.818466,181.999496 
	C238.909378,180.853851 238.000275,179.708191 237.129990,178.211670 
z"/>
<path fill="#DEE1E3" opacity="1.000000" stroke="none" 
	d="
M201.450912,267.691711 
	C201.315369,266.881866 201.402069,266.242889 201.815018,265.233215 
	C202.740891,265.711853 203.340515,266.561127 203.958435,267.702759 
	C203.208862,267.950958 202.441010,267.906769 201.450912,267.691711 
z"/>
<path fill="#E8EBED" opacity="1.000000" stroke="none" 
	d="
M342.281677,172.790024 
	C341.682434,171.908600 341.340912,170.818832 341.003326,169.362396 
	C341.558716,169.167862 342.110168,169.339996 342.829376,169.755463 
	C342.844574,170.859741 342.691956,171.720703 342.281677,172.790024 
z"/>
<path fill="#B4BBC3" opacity="1.000000" stroke="none" 
	d="
M204.227692,179.849731 
	C204.644592,178.845291 205.409546,177.916199 206.489929,176.933182 
	C206.614075,177.706909 206.422806,178.534576 206.113617,179.669128 
	C205.522385,179.959061 205.049057,179.942078 204.227692,179.849731 
z"/>
<path fill="#E8EBED" opacity="1.000000" stroke="none" 
	d="
M336.273438,163.974899 
	C335.686310,163.835159 335.404053,163.663223 335.104462,163.000778 
	C335.179321,162.327942 335.271484,162.145630 335.363617,161.963333 
	C336.082947,162.189484 336.802307,162.415634 337.521606,162.641754 
	C337.207184,163.075409 336.892731,163.509064 336.273438,163.974899 
z"/>
<path fill="#ABB2BA" opacity="1.000000" stroke="none" 
	d="
M279.621338,172.962433 
	C279.717407,173.450592 279.459351,173.944839 279.095581,174.697113 
	C278.549225,174.999939 278.108582,175.044769 277.337402,175.051651 
	C277.760315,174.331985 278.513763,173.650269 279.621338,172.962433 
z"/>
<path fill="#ABB2BA" opacity="1.000000" stroke="none" 
	d="
M335.253387,161.671021 
	C335.271484,162.145630 335.179321,162.327942 334.961609,162.790924 
	C334.204590,162.302933 333.573120,161.534286 332.941162,160.426682 
	C333.463837,160.288010 333.987000,160.488297 334.789948,160.723389 
	C335.094208,160.965012 335.118683,161.171844 335.253387,161.671021 
z"/>
<path fill="#ABB2BA" opacity="1.000000" stroke="none" 
	d="
M326.292358,151.764481 
	C326.503906,151.977386 326.288544,152.420319 326.223450,152.656357 
	C325.449036,152.544281 324.739685,152.196167 324.262207,151.436707 
	C324.702362,150.965439 324.910614,150.905502 325.118866,150.845581 
	C325.439514,151.080902 325.760162,151.316238 326.292358,151.764481 
z"/>
<path fill="#CED0D3" opacity="1.000000" stroke="none" 
	d="
M191.027740,146.632812 
	C190.447159,146.776413 189.866730,146.586472 189.141785,146.112793 
	C189.473877,145.556381 189.950470,145.283676 190.715363,144.986969 
	C191.011719,145.408401 191.019806,145.853836 191.027740,146.632812 
z"/>
<path fill="#B4BBC3" opacity="1.000000" stroke="none" 
	d="
M173.379456,266.925354 
	C174.028000,267.119232 174.375977,267.297485 174.862274,267.737000 
	C174.535583,268.309937 174.070557,268.621674 173.310913,268.955444 
	C172.917145,268.536804 172.817978,268.096130 172.602692,267.336182 
	C172.684021,266.981201 172.881470,266.945496 173.379456,266.925354 
z"/>
<path fill="#CED2D8" opacity="1.000000" stroke="none" 
	d="
M325.071716,150.564758 
	C324.910614,150.905502 324.702362,150.965439 324.183075,151.124451 
	C323.597015,151.058411 323.356262,150.853119 323.057922,150.390808 
	C323.154541,149.865005 323.343048,149.556091 323.770905,149.110046 
	C324.348358,149.409927 324.686462,149.846939 325.071716,150.564758 
z"/>
<path fill="#E8EBED" opacity="1.000000" stroke="none" 
	d="
M330.913300,156.646973 
	C330.493073,156.650864 329.960388,156.486298 329.607300,156.132797 
	C330.124878,156.122086 330.462860,156.300293 330.913300,156.646973 
z"/>
<path fill="#89939E" opacity="1.000000" stroke="none" 
	d="
M239.954590,182.236603 
	C240.038132,182.022522 240.257782,182.045532 240.804001,182.133698 
	C241.130585,182.198822 241.111450,182.622498 241.045868,182.824371 
	C240.683746,182.842072 240.387238,182.657898 239.954590,182.236603 
z"/>
<path fill="#5C6979" opacity="1.000000" stroke="none" 
	d="
M201.184448,264.599182 
	C193.545944,265.331909 185.986038,265.581055 178.443970,266.093018 
	C174.798401,266.340515 175.146744,263.766693 174.477661,261.322998 
	C174.213211,225.396835 174.193054,189.751419 174.220520,153.661469 
	C174.655975,153.162476 175.043839,153.108002 175.727203,153.031647 
	C179.812286,153.170700 181.604370,154.695343 180.305603,158.768707 
	C179.866745,160.145081 180.012421,161.730576 180.011749,163.220551 
	C179.997757,194.019287 179.997391,224.818008 180.004379,255.616745 
	C180.005814,261.976746 180.024353,261.977356 186.439545,261.997040 
	C187.604889,262.000610 188.781738,261.891205 189.933517,262.016174 
	C193.950699,262.452026 195.090805,260.538391 195.058395,256.738586 
	C194.919312,240.424789 194.999130,224.109085 194.999435,207.794083 
	C194.999588,199.303619 194.906433,190.811218 195.081421,182.324356 
	C195.115585,180.667023 194.108826,176.283218 198.802734,179.854721 
	C199.080505,205.828491 199.046341,231.609543 199.107956,257.390381 
	C199.111526,258.882080 199.893478,260.371918 200.728180,261.891541 
	C201.185577,262.688171 201.227982,263.455963 201.184448,264.599182 
z"/>
<path fill="#5A6777" opacity="1.000000" stroke="none" 
	d="
M336.737701,180.989868 
	C337.443268,182.498886 337.994812,184.080795 338.006683,185.666748 
	C338.195007,210.809097 338.333496,235.951874 338.425537,261.094788 
	C338.437531,264.371124 337.120300,266.343262 333.284149,266.114502 
	C328.801910,265.847260 324.272156,265.796051 319.798859,266.130524 
	C315.655151,266.440338 314.828735,264.752258 314.853577,260.934753 
	C315.011902,236.612045 314.934296,212.287827 314.923889,187.499451 
	C315.954712,187.248703 317.749359,187.224518 317.905334,187.718155 
	C318.542236,189.733749 318.949463,191.906677 318.956696,194.023315 
	C319.026794,214.506104 319.133636,234.990753 318.900635,255.471115 
	C318.844879,260.371948 320.091919,262.800415 325.299011,262.014771 
	C326.113129,261.891937 326.975006,261.901031 327.792145,262.013519 
	C332.553497,262.669037 334.145233,260.756470 334.098328,255.879318 
	C333.877289,232.900497 333.943176,209.917984 334.100952,186.938126 
	C334.114410,184.975296 335.554993,183.022263 336.737701,180.989868 
z"/>
<path fill="#717D8A" opacity="1.000000" stroke="none" 
	d="
M244.414917,261.955292 
	C244.016891,239.854416 244.005768,217.694611 244.004364,195.534805 
	C244.004181,192.615997 244.053558,189.697205 244.035828,186.392242 
	C244.994308,187.417633 246.859253,188.822220 246.870743,190.241806 
	C247.053497,212.806854 247.035782,235.374023 246.904724,257.939789 
	C246.897034,259.262695 245.536072,260.577698 244.414917,261.955292 
z"/>
<path fill="#5A6777" opacity="1.000000" stroke="none" 
	d="
M214.255524,149.230270 
	C216.662582,148.647705 219.367157,147.998169 222.060181,148.042969 
	C229.104095,148.160126 236.142944,148.580734 243.607330,148.904404 
	C242.912964,149.952255 241.825317,151.821426 240.672256,151.862671 
	C233.191345,152.130341 225.692719,152.114807 218.209137,151.887344 
	C216.965454,151.849548 215.767090,150.319946 214.255524,149.230270 
z"/>
<path fill="#5C6979" opacity="1.000000" stroke="none" 
	d="
M285.036987,149.302429 
	C293.441650,148.782135 301.847809,148.689468 310.639709,148.758484 
	C310.101959,149.943893 309.209778,151.819550 308.249939,151.854843 
	C301.367889,152.107819 294.470001,152.065750 287.583282,151.884659 
	C286.716736,151.861877 285.885925,150.481476 285.036987,149.302429 
z"/>
<path fill="#5A6777" opacity="1.000000" stroke="none" 
	d="
M265.798767,261.912231 
	C266.416443,264.946625 265.302490,266.231323 262.222504,266.079071 
	C257.807343,265.860779 253.374252,266.005890 248.483185,265.967896 
	C248.650223,264.647217 249.195267,262.293030 249.929596,262.232422 
	C255.074478,261.807831 260.258423,261.856750 265.798767,261.912231 
z"/>
<path fill="#ABB2BA" opacity="1.000000" stroke="none" 
	d="
M312.216797,251.717743 
	C311.617584,251.423981 311.079407,250.847534 311.081207,250.272751 
	C311.139465,231.386917 311.249573,212.501236 311.627747,193.308533 
	C312.255676,194.214203 312.910248,195.425781 312.914551,196.639679 
	C312.977173,214.263840 312.957092,231.888336 312.931366,249.512711 
	C312.930420,250.153946 312.669434,250.794800 312.216797,251.717743 
z"/>
<path fill="#ABB2BA" opacity="1.000000" stroke="none" 
	d="
M220.316635,145.841705 
	C220.874237,145.183441 221.925262,144.084274 222.941605,144.115448 
	C227.580627,144.257828 232.209915,144.717499 236.995453,145.423889 
	C231.696808,145.830215 226.245453,145.875793 220.316635,145.841705 
z"/>
<path fill="#ABB2BA" opacity="1.000000" stroke="none" 
	d="
M291.320953,145.851349 
	C295.705688,142.584717 300.768707,143.711304 305.993042,145.431763 
	C301.361206,145.839310 296.578979,145.884430 291.320953,145.851349 
z"/>
<path fill="#ABB2BA" opacity="1.000000" stroke="none" 
	d="
M311.887451,188.733536 
	C310.263489,185.962646 308.696106,182.798187 307.161255,179.250626 
	C308.777222,182.025009 310.360626,185.182495 311.887451,188.733536 
z"/>
<path fill="#BFC5CC" opacity="1.000000" stroke="none" 
	d="
M300.833801,172.786072 
	C301.080231,173.083649 301.056427,173.270020 301.009613,173.737457 
	C299.034973,173.250519 297.083344,172.482513 295.065979,171.027481 
	C295.001190,169.895081 295.002136,169.449707 295.003052,169.004333 
	C295.432434,169.026581 295.861847,169.048843 296.677795,169.405701 
	C297.724884,170.147659 298.385345,170.555008 299.045837,170.962372 
	C299.551758,171.533188 300.057709,172.104019 300.833801,172.786072 
z"/>
<path fill="#ABB2BA" opacity="1.000000" stroke="none" 
	d="
M260.001801,153.436340 
	C262.014221,153.390182 264.102539,153.686569 266.595062,153.990997 
	C264.579895,157.451614 262.310608,156.187759 260.001801,153.436340 
z"/>
<path fill="#ABB2BA" opacity="1.000000" stroke="none" 
	d="
M199.999527,152.012375 
	C200.447281,151.991974 200.895050,151.971588 201.677399,151.986038 
	C201.008240,155.736526 199.046677,155.978836 196.585800,153.263763 
	C197.876312,152.635605 198.937927,152.323990 199.999527,152.012375 
z"/>
<path fill="#ABB2BA" opacity="1.000000" stroke="none" 
	d="
M314.949402,146.542831 
	C315.999664,146.468567 317.148834,146.708130 318.654663,146.966431 
	C319.389587,147.717606 319.767883,148.450043 320.183228,149.500015 
	C318.496277,148.830597 316.772278,147.843628 314.949402,146.542831 
z"/>
<path fill="#ABB2BA" opacity="1.000000" stroke="none" 
	d="
M248.977158,147.441711 
	C250.591415,148.147217 252.264923,149.190811 254.019257,150.556229 
	C252.412186,149.845306 250.724304,148.812546 248.977158,147.441711 
z"/>
<path fill="#CED0D3" opacity="1.000000" stroke="none" 
	d="
M199.768341,151.733917 
	C198.937927,152.323990 197.876312,152.635605 196.460617,152.929855 
	C196.047867,152.496841 195.989212,152.081161 195.938690,151.350555 
	C197.143600,151.175568 198.340378,151.315521 199.768341,151.733917 
z"/>
<path fill="#ABB2BA" opacity="1.000000" stroke="none" 
	d="
M338.090393,172.237183 
	C338.599213,172.796982 339.056244,173.705597 339.259705,174.807098 
	C338.683655,174.195328 338.361145,173.390656 338.090393,172.237183 
z"/>
<path fill="#ABB2BA" opacity="1.000000" stroke="none" 
	d="
M278.203003,147.876160 
	C278.426117,147.289047 278.968872,146.723267 279.839020,146.211426 
	C279.618500,146.809418 279.070587,147.353439 278.203003,147.876160 
z"/>
<path fill="#ABB2BA" opacity="1.000000" stroke="none" 
	d="
M283.157532,146.286728 
	C283.566467,145.892609 284.130676,145.710312 284.847412,145.746338 
	C284.437592,146.142624 283.875183,146.320587 283.157532,146.286728 
z"/>
<path fill="#ABB2BA" opacity="1.000000" stroke="none" 
	d="
M298.992126,170.642975 
	C298.385345,170.555008 297.724884,170.147659 296.999207,169.432587 
	C297.602142,169.524445 298.270294,169.924011 298.992126,170.642975 
z"/>
<path fill="#ABB2BA" opacity="1.000000" stroke="none" 
	d="
M273.228027,150.891479 
	C273.414856,150.289810 273.928589,149.698425 274.766968,149.112549 
	C274.579437,149.712631 274.067169,150.307190 273.228027,150.891479 
z"/>
<path fill="#ABB2BA" opacity="1.000000" stroke="none" 
	d="
M267.317383,153.966614 
	C267.464844,153.361755 267.930878,152.724472 268.725281,152.075500 
	C268.581055,152.687271 268.108521,153.310730 267.317383,153.966614 
z"/>
<path fill="#ABB2BA" opacity="1.000000" stroke="none" 
	d="
M294.753693,168.995956 
	C295.002136,169.449707 295.001190,169.895081 294.999512,170.675354 
	C294.998779,171.010239 294.504059,171.008560 294.257538,170.994507 
	C294.007721,170.539322 294.004425,170.098190 294.003265,169.324936 
	C294.005402,168.992828 294.504333,168.987579 294.753693,168.995956 
z"/>
</svg>